<svg id="Layer_1" data-name="Layer 1" xmlns="http://www.w3.org/2000/svg" viewBox="0 0 100 100"><defs><style>.cls-1{fill:#d0cac3;}.cls-2{fill:#04070e;}</style></defs><circle class="cls-1" cx="50" cy="50" r="50"/><path class="cls-2" d="M35.31,18.63V69.07q0,9,7.69,9h1.3v3.42H17.44V78.07h1.73q7.4,0,7.4-9V36q0-9.12-6.47-9.12H17.44V23.45h1a22.87,22.87,0,0,0,14.19-4.81ZM45.07,52A47.75,47.75,0,0,1,50,30.29Q56.22,18,67,18q10.4,0,16.48,10.52a39.29,39.29,0,0,1,4.95,19.9A47,47,0,0,1,83.46,70Q77.25,82,66.61,82,56.35,82,50.26,71.61A37.7,37.7,0,0,1,45.07,52Zm9.12-3.68a69,69,0,0,0,2.16,18q3.3,12.29,10.77,12.29,12.17,0,12.17-25.35,0-31.3-13.18-31.3-11.91,0-11.91,24.33Z"/></svg>