<svg id="Layer_1" data-name="Layer 1" xmlns="http://www.w3.org/2000/svg" viewBox="0 0 508 100"><defs><style>.cls-1{fill:#d0cac3;}.cls-2{fill:#04070e;}</style></defs><path class="cls-1" d="M458,0H50a50,50,0,0,0,0,100H458A50,50,0,1,0,458,0Z"/><path class="cls-2" d="M84.14,85.53V82.91q10.33-1.12,10.33-7.56,0-3.81-2.92-4l-1-.07q-4.2-.3-4.2-4.12a4.46,4.46,0,0,1,1.31-3.41,4.88,4.88,0,0,1,3.48-1.24q3.67,0,5.77,3.67a13.68,13.68,0,0,1,1.79,7q0,6.21-4.34,9.43Q90.58,85.38,84.14,85.53Z"/><path class="cls-2" d="M286.62,85.53V82.91q10.33-1.12,10.33-7.56,0-3.81-2.92-4l-1-.07q-4.19-.3-4.19-4.12a4.46,4.46,0,0,1,1.31-3.41,4.88,4.88,0,0,1,3.48-1.24q3.67,0,5.77,3.67a13.7,13.7,0,0,1,1.79,7q0,6.21-4.34,9.43Q293.05,85.38,286.62,85.53Z"/><path class="cls-2" d="M430.53,50.37A57.86,57.86,0,0,1,436.61,24q7.53-15,20.62-15t20.22,12.74q6.08,10.51,6.08,24.42a55.79,55.79,0,0,1-6.08,26.14Q470.05,87,456.83,87q-12.56,0-20-12.6A46.44,46.44,0,0,1,430.53,50.37ZM441.63,46q0,18.91,5.69,29.42,4,7.35,10.18,7.35,14.94,0,14.94-30.73a94,94,0,0,0-2.37-22.85Q466,13.86,456.17,13.86q-14.55,0-14.54,29.68Z"/><path class="cls-2" d="M369.53,50.37A57.86,57.86,0,0,1,375.61,24q7.54-15,20.62-15t20.23,12.74q6.08,10.51,6.08,24.42a55.79,55.79,0,0,1-6.08,26.14Q409.05,87,395.83,87q-12.56,0-20-12.6A46.43,46.43,0,0,1,369.53,50.37ZM380.63,46q0,18.91,5.69,29.42,4,7.35,10.18,7.35,14.94,0,14.94-30.73a94.07,94.07,0,0,0-2.37-22.85Q405,13.86,395.17,13.86q-14.55,0-14.54,29.68Z"/><path class="cls-2" d="M308.21,50.37A57.86,57.86,0,0,1,314.29,24q7.53-15,20.62-15t20.22,12.74q6.08,10.51,6.08,24.42a55.79,55.79,0,0,1-6.08,26.14Q347.74,87,334.52,87q-12.56,0-20-12.6A46.46,46.46,0,0,1,308.21,50.37ZM319.31,46q0,18.91,5.69,29.42,4,7.35,10.18,7.35,14.94,0,14.94-30.73a93.87,93.87,0,0,0-2.37-22.85q-4.1-15.36-13.89-15.37-14.54,0-14.54,29.68Z"/><path class="cls-2" d="M226.86,50.37A57.86,57.86,0,0,1,232.94,24q7.53-15,20.62-15t20.22,12.74q6.08,10.51,6.08,24.42a55.79,55.79,0,0,1-6.08,26.14Q266.38,87,253.17,87q-12.56,0-20-12.6A46.46,46.46,0,0,1,226.86,50.37ZM238,46q0,18.91,5.69,29.42,4,7.35,10.18,7.35,14.94,0,14.94-30.73a93.88,93.88,0,0,0-2.37-22.85q-4.1-15.36-13.89-15.37Q238,13.86,238,43.54Z"/><path class="cls-2" d="M165.86,50.37A57.86,57.86,0,0,1,171.94,24q7.53-15,20.62-15t20.22,12.74q6.08,10.51,6.08,24.42a55.79,55.79,0,0,1-6.08,26.14Q205.38,87,192.17,87q-12.56,0-20-12.6A46.44,46.44,0,0,1,165.86,50.37ZM177,46q0,18.91,5.69,29.42,4,7.35,10.18,7.35,14.94,0,14.94-30.73a94,94,0,0,0-2.37-22.85q-4.1-15.36-13.89-15.37Q177,13.86,177,43.54Z"/><path class="cls-2" d="M104.55,50.37A57.86,57.86,0,0,1,110.63,24q7.53-15,20.63-15t20.22,12.74q6.08,10.51,6.08,24.42a55.79,55.79,0,0,1-6.08,26.14Q144.07,87,130.85,87q-12.56,0-20-12.6A46.44,46.44,0,0,1,104.55,50.37ZM115.65,46q0,18.91,5.69,29.42,4,7.35,10.18,7.35,14.94,0,14.94-30.73a94,94,0,0,0-2.37-22.85Q140,13.86,130.19,13.86q-14.55,0-14.54,29.68Z"/><path class="cls-2" d="M61.79,9V71.51q0,11.22,9.69,11.22h1.68V87H39.05V82.72h2.14q9.37,0,9.37-11.22v-41q0-11.35-8.08-11.35H39.05V15h1.24A29.58,29.58,0,0,0,58.37,9Z"/></svg>