<svg id="Layer_1" data-name="Layer 1" xmlns="http://www.w3.org/2000/svg" viewBox="0 0 100 100"><defs><style>.cls-1{fill:#d0cac3;}.cls-2{fill:#04070e;}</style></defs><circle class="cls-1" cx="50" cy="50" r="50"/><path class="cls-2" d="M35.63,19.21V68.39q0,8.81,7.28,8.82h1.28v3.45H18V77.21h1.53q7.41,0,7.41-8.82V36.07q0-8.93-6.13-8.94H18.13V23.81h1a22.41,22.41,0,0,0,13.79-4.6Zm51,46.37-4.47,15.2H44.7V77.46Q47.38,74.4,56.58,65.2q5.49-5.49,11-11.75c1.79-2,3.19-3.75,4.21-5.12A17.55,17.55,0,0,0,75,38.63,13.4,13.4,0,0,0,72,30.07a9.45,9.45,0,0,0-7.79-3.71q-10.1,0-15.84,13.8l-3.32-1.28Q52,19.72,66.54,19.72A17.18,17.18,0,0,1,78.8,24.58a16.06,16.06,0,0,1,5.11,12.14q0,9.32-10.6,18.14L66,60.73A106.57,106.57,0,0,0,54.4,71.84c-.25.26-.68.73-1.27,1.41H72.67q4.47,0,6.64-1.66t4-6Z"/></svg>