<svg id="Layer_1" data-name="Layer 1" xmlns="http://www.w3.org/2000/svg" viewBox="0 0 100 100"><defs><style>.cls-1{fill:#d0cac3;}.cls-2{fill:#04070e;}</style></defs><circle class="cls-1" cx="50" cy="50" r="50"/><path class="cls-2" d="M38,19.79V68.33q0,8.56,7.28,8.55H46.4v3.32H20.6V76.89h1.66q7.41,0,7.41-8.55V36.52q0-8.81-6.26-8.81H20.85V24.39h1a21.7,21.7,0,0,0,13.54-4.6ZM59.68,52l-1.53-2.81,1.15-.64Q65.05,45,70,41.31t4.92-8.24a6.73,6.73,0,0,0-2.43-5.3,8,8,0,0,0-5.36-2.11q-7.42,0-15.59,8.95L49,32.69q8.43-12.77,20.69-12.78a15,15,0,0,1,9.07,2.68,9.24,9.24,0,0,1,4.35,8.05,10.56,10.56,0,0,1-3.07,7,53.61,53.61,0,0,1-6.13,5.24l-1.15,1a12.32,12.32,0,0,1,1.92-.13,11.45,11.45,0,0,1,9.2,4.28,14.81,14.81,0,0,1,3.58,9.77q0,9.71-8.18,16.1A26.24,26.24,0,0,1,62,80.08q-9.08,0-14.18-3.84l1.79-2.55a26.23,26.23,0,0,0,11,2.81,19.28,19.28,0,0,0,12.78-4.73A14.74,14.74,0,0,0,79,60a12,12,0,0,0-2.81-8,9.24,9.24,0,0,0-7.41-3.32Q64.67,48.66,59.68,52Z"/></svg>