<svg id="Layer_1" data-name="Layer 1" xmlns="http://www.w3.org/2000/svg" viewBox="0 0 100 100"><defs><style>.cls-1{fill:#d0cac3;}.cls-2{fill:#04070e;}</style></defs><circle class="cls-1" cx="50" cy="50" r="50"/><path class="cls-2" d="M34.67,18.13V69q0,9.07,7.54,9.07h1.28v3.45H16.41V78h1.79q7.66,0,7.67-9.07V35.63q0-9.19-6.52-9.2H16.66V23h1A23.06,23.06,0,0,0,32,18.13ZM52.55,19.4H75.68c3,0,4.77-.34,5.37-1h3.32l-1.92,8.69H54.22L51.54,39.59a29.09,29.09,0,0,1,10.73-2.43,21.45,21.45,0,0,1,15.52,6.13,20.46,20.46,0,0,1,6.32,15.33,21,21,0,0,1-8.17,17.25,29.16,29.16,0,0,1-18.53,6A41.71,41.71,0,0,1,44.89,80l1.27-3.19a34.81,34.81,0,0,0,9.07,1.4A20.3,20.3,0,0,0,69.1,72.93,16.67,16.67,0,0,0,75,59.9a14.93,14.93,0,0,0-4.4-11.11,15.11,15.11,0,0,0-11.05-4.34A18.12,18.12,0,0,0,48,48.79l-2.17-.38Z"/></svg>