<svg id="Layer_1" data-name="Layer 1" xmlns="http://www.w3.org/2000/svg" viewBox="0 0 100 100"><defs><style>.cls-1{fill:#d0cac3;}.cls-2{fill:#04070e;}</style></defs><circle class="cls-1" cx="50" cy="50" r="50"/><path class="cls-2" d="M34.31,18.32V69.16q0,9.07,7.54,9.07h1.28v3.45H16V78.23h1.79q7.66,0,7.67-9.07V35.82q0-9.19-6.52-9.19H16.3V23.17h1a23.07,23.07,0,0,0,14.3-4.85ZM54.37,45.78q7-6.63,14.18-6.64a14.92,14.92,0,0,1,12.39,6.13,21.69,21.69,0,0,1,4.34,13.67,23.91,23.91,0,0,1-5.11,15.2q-5.62,7.28-14,7.28-10,0-16.1-8.68A30.83,30.83,0,0,1,44.66,54.6,36.94,36.94,0,0,1,50.79,34,33.58,33.58,0,0,1,67.27,20.62a34.33,34.33,0,0,1,12.26-2.17v3.32q-13.79.64-20.56,11A32.71,32.71,0,0,0,54.37,45.78ZM53.73,52c-.08,1.27-.13,2.55-.13,3.83a35.79,35.79,0,0,0,2.56,13.67q3.32,8.17,9.71,8.17,5.49,0,8.3-5.62a24.77,24.77,0,0,0,2-10.6,29.8,29.8,0,0,0-1.91-11.24q-2.82-6.39-8.56-6.39Q58.71,43.87,53.73,52Z"/></svg>