<svg id="Layer_1" data-name="Layer 1" xmlns="http://www.w3.org/2000/svg" viewBox="0 0 100 100"><defs><style>.cls-1{fill:#d0cac3;}.cls-2{fill:#04070e;}</style></defs><circle class="cls-1" cx="50" cy="50" r="50"/><path class="cls-2" d="M36,19.21V68.65q0,8.82,7.28,8.82h1.28v3.32H18.22V77.46h1.66q7.53,0,7.54-8.82V36.21q0-8.94-6.39-8.94H18.47V23.94h1a22,22,0,0,0,13.79-4.73Zm22.61,30.4-1.28-1q-6-4.09-7.92-6.51a12.36,12.36,0,0,1-2.3-7.41,13.75,13.75,0,0,1,6-11.5A20.09,20.09,0,0,1,65.87,19a21.62,21.62,0,0,1,12.26,3.58A12.64,12.64,0,0,1,84,33.39q0,8.18-11.24,13.16,12.91,6.26,12.9,17.5a15.16,15.16,0,0,1-6.26,12.77Q74,81,65.74,81a22.9,22.9,0,0,1-13.54-4q-6.51-4.47-6.51-11.88t7-12.27A49,49,0,0,1,58.58,49.62ZM62.16,51q-9.32,4.34-9.32,13.54a12.54,12.54,0,0,0,3.83,9.52,13.37,13.37,0,0,0,9.59,3.64,14.35,14.35,0,0,0,9.07-2.87,9.53,9.53,0,0,0,3.7-8q0-7.79-10-12.52Zm7-6.13q8.31-3.7,8.3-11A10.18,10.18,0,0,0,74,25.86a12.66,12.66,0,0,0-8.62-3.06,12.46,12.46,0,0,0-7.54,2.42,7.78,7.78,0,0,0-3.32,6.64A9.34,9.34,0,0,0,59.22,40q1,.64,8.43,4.09Z"/></svg>