<svg id="Layer_1" data-name="Layer 1" xmlns="http://www.w3.org/2000/svg" viewBox="0 0 100 100"><defs><style>.cls-1{fill:#d0cac3;}.cls-2{fill:#04070e;}</style></defs><circle class="cls-1" cx="50" cy="50" r="50"/><path class="cls-2" d="M77.44,70.1,71.55,90h-49V85.75q3.57-4,15.65-16.05,7.27-7.28,14.41-15.37a63.2,63.2,0,0,0,5.49-6.86,22,22,0,0,0,4.25-12.62,17.08,17.08,0,0,0-3.91-11.11,12.42,12.42,0,0,0-10.09-4.81q-13.31,0-20.85,18L23.1,35.25Q32,10,51.23,10a22.32,22.32,0,0,1,16.12,6.45A21.28,21.28,0,0,1,74,32.37Q74,44.45,60.16,56l-9.6,8A148.43,148.43,0,0,0,35.32,78.34c-.28.27-.83.92-1.65,1.92H59.19q5.9,0,8.92-2.33,2.6-2.06,5.08-7.82Z"/></svg>