<svg id="Layer_1" data-name="Layer 1" xmlns="http://www.w3.org/2000/svg" viewBox="0 0 100 100"><defs><style>.cls-1{fill:#9cc497;}.cls-2{fill:#d0cac3;}.cls-3{fill:#04070e;}</style></defs><path class="cls-1" d="M85.35,14.64a50,50,0,1,1-70.7,70.72"/><path class="cls-2" d="M14.65,85.35a50,50,0,0,1,70.7-70.72"/><path class="cls-3" d="M43.65,41.59l-2.87,9.68H17V49.2q1.74-1.94,7.61-7.8,3.54-3.54,7-7.48a30.38,30.38,0,0,0,2.67-3.34,10.7,10.7,0,0,0,2.07-6.14,8.3,8.3,0,0,0-1.9-5.4A6,6,0,0,0,29.5,16.7q-6.47,0-10.14,8.74l-2.14-.8Q21.56,12.37,30.9,12.37a10.85,10.85,0,0,1,7.84,3.13A10.35,10.35,0,0,1,42,23.25q0,5.87-6.74,11.47l-4.67,3.87a72.15,72.15,0,0,0-7.41,7c-.14.14-.4.45-.8.93H34.77a7,7,0,0,0,4.34-1.13,9.79,9.79,0,0,0,2.47-3.8Z"/><path class="cls-3" d="M89.52,67.62a2.87,2.87,0,0,1-.88,2,2.73,2.73,0,0,1-2,.91A2.8,2.8,0,0,1,84,68.87l-2.67-.11a15,15,0,0,0-3.35.74,8.68,8.68,0,0,0-3.06,1.19,6.91,6.91,0,0,0-1,3.18,20.21,20.21,0,0,0-.34,3A4.07,4.07,0,0,0,74,79.1a3.72,3.72,0,0,0,2,1.19c1,.32,1.62.5,1.84.54a7.19,7.19,0,0,0,.74-.06h.68a5.66,5.66,0,0,1,1.53.23q1.13.34,1,.91a9,9,0,0,0-2.78.34l1.59.79c0,.45-.64.68-1.93.68a5.87,5.87,0,0,1-1.39-.22,5.83,5.83,0,0,0-1.16-.23h-.74A13.22,13.22,0,0,1,75,85a4.24,4.24,0,0,1-2.27-1.13,4.61,4.61,0,0,0-1.64-1.08q-.34,0-1,1.08a3.84,3.84,0,0,0-.62,1.47,3.13,3.13,0,0,1-1.25-1.47c-.15-.5-.32-1-.51-1.48q-.57.06-2.1,2.38h-.28a25.28,25.28,0,0,1-.85-2.38,10.82,10.82,0,0,0-3.29-.56,11.61,11.61,0,0,0-2.27.34L57.36,82a12.88,12.88,0,0,1,2-1.3,6.63,6.63,0,0,1,2.95-1.14,2.55,2.55,0,0,1,.45.06,2.27,2.27,0,0,0,.45.06,3.47,3.47,0,0,0,1.28-.43c.59-.28.93-.54,1-.77a6.08,6.08,0,0,0,.14-1.76,6.29,6.29,0,0,0-1.7-4.82,9.49,9.49,0,0,0-4.88-2q-.91,3.23-5.1,3.23a3.71,3.71,0,0,1-2.72-1.65,4.93,4.93,0,0,1-1.36-3A4.2,4.2,0,0,1,51.63,65a4.37,4.37,0,0,1-1.42-3,3.83,3.83,0,0,1,.88-2.5,3.39,3.39,0,0,1,2.3-1.25,2.38,2.38,0,0,1,1.19-2.5A3.09,3.09,0,0,1,54,53.55a4.26,4.26,0,0,1,4.36-4.37,4.35,4.35,0,0,1,3.35,1.42Q63.32,45,68.76,45a6.69,6.69,0,0,1,5,2.27,7.55,7.55,0,0,1,.79.91q-.68,0,.68-.25a12.11,12.11,0,0,1,2-.26,5.48,5.48,0,0,1,3.92,1.65,7.87,7.87,0,0,1,2,3.74,8.25,8.25,0,0,1,1.25.34,2.21,2.21,0,0,1,1.25,2.16,2.92,2.92,0,0,1-.45,1.08q3.63,2,3.63,5.67A7.74,7.74,0,0,1,88,65.12,2.72,2.72,0,0,1,89.52,67.62Zm-23.37,2.5v-.74A3.1,3.1,0,0,0,64.88,67a4,4,0,0,0-2.58-1.08,6.12,6.12,0,0,0-2.95.74Q62.35,66.49,66.15,70.11Zm-1-7a14.33,14.33,0,0,1-1.47-2q-2.38.62-2.38,1.42a6.83,6.83,0,0,1,2,.26A9.15,9.15,0,0,0,65.13,63.08Zm3.46-1.76v-2.5a16.15,16.15,0,0,0-1.65-.23v.85ZM76,59.74q-.68-.28-2.55-1.13v4.88Q76.08,61.94,76,59.74Zm3.12,6.69L77.83,64.9l-2.3,1.62a10.37,10.37,0,0,0-2,1.84A19.35,19.35,0,0,1,79.08,66.43Z"/></svg>