<svg id="Layer_1" data-name="Layer 1" xmlns="http://www.w3.org/2000/svg" viewBox="0 0 100 100"><defs><style>.cls-1{fill:#f8a076;}.cls-2{fill:#d0cac3;}.cls-3{fill:#04070e;}</style></defs><path class="cls-1" d="M85.35,14.64a50,50,0,1,1-70.7,70.72"/><path class="cls-2" d="M14.65,85.35a50,50,0,0,1,70.7-70.72"/><path class="cls-3" d="M88.3,74.44q-2.58,6.15-10.24,6.14a14.51,14.51,0,0,0-3,.35c-1.64.35-2.46.84-2.46,1.46a1,1,0,0,0,.41.67,1.14,1.14,0,0,0,.7.38q-1.46,0,2,.09t4.33.09q-5.09,3-17,2.75a8.65,8.65,0,0,1-6.73-3.45,10.79,10.79,0,0,1-2.75-7.2,10,10,0,0,1,2.84-7.17,9.38,9.38,0,0,1,7.05-3,10.26,10.26,0,0,1,2.49.41,10.23,10.23,0,0,0,2.08.41,11.74,11.74,0,0,0,5.38-1.79,24.51,24.51,0,0,0,3-1.78q-.59,6.15-4.1,8.25Q69.75,72.57,69.75,74a1.58,1.58,0,0,0,1.05,1.4,3.56,3.56,0,0,0,4.8-1.46,4.8,4.8,0,0,0,1.29-3.39,16.39,16.39,0,0,1,.23-4.21A4.48,4.48,0,0,1,78,64.58a3.49,3.49,0,0,1,1.32-1.26,7,7,0,0,1-.38,1.75,6.92,6.92,0,0,0-.38,1.81,2.69,2.69,0,0,0,.7,2q1.05-.41,1.87-2.63A10.7,10.7,0,0,0,81.92,63a7.39,7.39,0,0,1-4.71-2.22A6.2,6.2,0,0,1,75,56.18a2.91,2.91,0,0,1,.12-.82L76.13,57c.66,1,1.17,1.46,1.52,1.46s.7-.49.7-1.46a6.07,6.07,0,0,0-1-3.39,3.29,3.29,0,0,0-2.87-1.81,6,6,0,0,0-2.46.88,6.45,6.45,0,0,1-3,.88,26.31,26.31,0,0,1-3.63-1.05q5.67-.93,5.68-1.7,0-2-7.78-2.69l-2.81-.23q.23-.29,3.34-.64,2.63-.29,3.68-.29,13.93,0,17.67,13.52a2.19,2.19,0,0,0,.64-1.78,11.74,11.74,0,0,0-.94-4q-.35-.95-1.11-2.85,4.8,6.11,4.8,11.58a10.35,10.35,0,0,1-1.35,5.23A21.27,21.27,0,0,1,84,72.67a28.78,28.78,0,0,0-3.28,3.82,31.57,31.57,0,0,0,4.21-1.35,12.2,12.2,0,0,0,4-3A6.64,6.64,0,0,1,88.3,74.44Zm-25.51-23a1.32,1.32,0,0,1-1.17,1.34L60.09,53q-.82.41-2.4,3.22c-.12-.58-.29-1.4-.53-2.46a4.79,4.79,0,0,0-1.75.94q-.53.41-1.7,1.23a8.56,8.56,0,0,1,2.34-4.27q2.11-2.4,4.1-2.4Q62.79,49.28,62.79,51.44ZM73,56.83a2,2,0,0,1-1.08,1.67,4,4,0,0,1-2.14.67,3.11,3.11,0,0,1-2.52-1.58,6.8,6.8,0,0,0-2.75-2.52,1,1,0,0,1,.7-.29A4.2,4.2,0,0,1,67,55.6a4.56,4.56,0,0,0,1.61.82c.2,0,.52-.27,1-.82A1.93,1.93,0,0,1,71,54.78C72.32,54.78,73,55.46,73,56.83Z"/><path class="cls-3" d="M43.65,41.59l-2.87,9.67H17V49.2q1.74-1.93,7.61-7.8,3.54-3.54,7-7.48a30.4,30.4,0,0,0,2.67-3.33,10.7,10.7,0,0,0,2.07-6.14,8.31,8.31,0,0,0-1.9-5.4,6,6,0,0,0-4.91-2.34q-6.47,0-10.14,8.74l-2.14-.8Q21.56,12.37,30.9,12.37a10.85,10.85,0,0,1,7.84,3.13A10.34,10.34,0,0,1,42,23.25q0,5.87-6.74,11.48l-4.67,3.87a72.05,72.05,0,0,0-7.41,7q-.2.2-.8.94H34.77a7,7,0,0,0,4.34-1.13,9.78,9.78,0,0,0,2.47-3.8Z"/></svg>