<svg id="Layer_1" data-name="Layer 1" xmlns="http://www.w3.org/2000/svg" viewBox="0 0 100 100"><defs><style>.cls-1{fill:#bcd9e8;}.cls-2{fill:#d0cac3;}.cls-3{fill:#04070e;}</style></defs><path class="cls-1" d="M85.35,14.64a50,50,0,1,1-70.7,70.72"/><path class="cls-2" d="M14.65,85.35a50,50,0,0,1,70.7-70.72"/><path class="cls-3" d="M76.72,83.67a13.4,13.4,0,0,1-9.95,4.11,13.15,13.15,0,0,1-10.52-4.54,16.43,16.43,0,0,1-3.68-11q0-7.21,6.27-16.43a62.08,62.08,0,0,1,12-13.26,35.61,35.61,0,0,0-1,6.56,15.63,15.63,0,0,0,2.81,8.72q3.46,5,5.26,7.5a15,15,0,0,1,2.81,8.29A13.84,13.84,0,0,1,76.72,83.67Zm-.07-15.39a6.54,6.54,0,0,0-2.52-3.21,2.8,2.8,0,0,1,.22,1.22,16,16,0,0,1-.86,4.33l-.94,2.88A2.23,2.23,0,0,0,75.06,76q2.67,0,2.67-3.53A10.6,10.6,0,0,0,76.65,68.29Z"/><path class="cls-3" d="M43.65,41.59l-2.87,9.67H17V49.2q1.74-1.93,7.61-7.8,3.54-3.54,7-7.48a30.4,30.4,0,0,0,2.67-3.33,10.7,10.7,0,0,0,2.07-6.14,8.31,8.31,0,0,0-1.9-5.4,6,6,0,0,0-4.91-2.34q-6.47,0-10.14,8.74l-2.14-.8Q21.56,12.37,30.9,12.37a10.85,10.85,0,0,1,7.84,3.13A10.34,10.34,0,0,1,42,23.25q0,5.87-6.74,11.48l-4.67,3.87a72.05,72.05,0,0,0-7.41,7q-.2.2-.8.94H34.77a7,7,0,0,0,4.34-1.13,9.78,9.78,0,0,0,2.47-3.8Z"/></svg>