<svg id="Layer_1" data-name="Layer 1" xmlns="http://www.w3.org/2000/svg" viewBox="0 0 100 100"><defs><style>.cls-1{fill:#f8f6da;}.cls-2{fill:#d0cac3;}.cls-3{fill:#04070e;}</style></defs><path class="cls-1" d="M85.35,14.64a50,50,0,1,1-70.7,70.72"/><path class="cls-2" d="M14.65,85.35a50,50,0,0,1,70.7-70.72"/><path class="cls-3" d="M43.65,41.59l-2.87,9.68H17V49.2q1.74-1.94,7.61-7.8,3.54-3.54,7-7.48a30.39,30.39,0,0,0,2.67-3.34,10.7,10.7,0,0,0,2.07-6.14,8.3,8.3,0,0,0-1.9-5.4A6,6,0,0,0,29.5,16.7q-6.47,0-10.14,8.74l-2.14-.8Q21.56,12.37,30.9,12.37a10.85,10.85,0,0,1,7.84,3.13A10.35,10.35,0,0,1,42,23.25q0,5.87-6.74,11.47l-4.67,3.87a72.15,72.15,0,0,0-7.41,7c-.14.14-.4.45-.8.93H34.77a7,7,0,0,0,4.34-1.13,9.79,9.79,0,0,0,2.47-3.8Z"/><path class="cls-3" d="M88,73.11q-3.65-3.4-4.85-3.68-.87-.21-1.67,1a2,2,0,0,1-2.27.86,14.06,14.06,0,0,1-2.33-1A6,6,0,0,0,75.37,72a2.25,2.25,0,0,0,.55,1.62,2.54,2.54,0,0,0,1.3,1.17,4.94,4.94,0,0,0,1.09.09,4.93,4.93,0,0,1,.93.05q.67.16.08,2.6a37.18,37.18,0,0,1-2.79,6.89q-.09-5.86-1.66-6.24a2.9,2.9,0,0,0-1,.11,2.78,2.78,0,0,1-1.08.08q-1.57-.38-2.13-3.55-2.58-.22-3.1,2a2,2,0,0,0,.59,2Q69,79.68,69,80q-.35,1.46-5.36,3.47-2.67,1.08-3.69,1.52A14.91,14.91,0,0,0,62,82.77a7.27,7.27,0,0,0,1.53-2.56q.13-.54-.88-1.82A2.76,2.76,0,0,1,61.93,76a5.64,5.64,0,0,1,1.19-2.12,2.21,2.21,0,0,0-1.49-1.21q-2.17-.52-2.5.89l-.35,1.46q-.37,1.8-3.14,1.14a44.16,44.16,0,0,1-6.86-2.67q6-.06,6.41-1.9a7.43,7.43,0,0,1,.1-1.35q.18-1.73,3.11-2.46.11-2.61-2-3.11c-.22-.05-.71.23-1.46.85a2.37,2.37,0,0,1-1.9.75q-1.3-.31-2.68-3.62-.64-1.64-2-4.88l2.18,1.9A6.86,6.86,0,0,0,53,61.06q.76.18,1.81-1A2.23,2.23,0,0,1,57,59.22a22.73,22.73,0,0,1,2,1.17,5.25,5.25,0,0,0,1.59-2.08,2.43,2.43,0,0,0-.43-1.68,2.2,2.2,0,0,0-1.24-1.18,3.53,3.53,0,0,0-.88,0,3.51,3.51,0,0,1-.88,0q-1-.23-.39-2.67.15-.65,3-7.12a9.94,9.94,0,0,0,0,3.2q.27,2.93,1.52,3.23a2.71,2.71,0,0,0,.95-.12,2.58,2.58,0,0,1,1.11-.08,2.44,2.44,0,0,1,1.72,1.9l.46,1.66A2.54,2.54,0,0,0,67.64,55a2.83,2.83,0,0,0,1.23-1.77,2.07,2.07,0,0,0-.57-2.05c-.57-.58-.83-1-.78-1.19q.27-1.14,4.5-3a27.6,27.6,0,0,1,4.35-1.65q-3.08,2.59-3.43,4a2.44,2.44,0,0,0,.53,1.85A5.48,5.48,0,0,1,74.42,53a5.23,5.23,0,0,1-.92,3.39,4.68,4.68,0,0,0,2,1.56,1.45,1.45,0,0,0,2-1.25q0-.16.11-1.06a3.29,3.29,0,0,1,.15-1q.4-.71,3.16,0a54.43,54.43,0,0,1,7,2.7L84,57.44q-2.32.13-2.52.94a5.67,5.67,0,0,0,0,1.36,5.54,5.54,0,0,1-.05,1.42q-.18.76-1.31,1.17l-2.16.86a9,9,0,0,0,.53,1.62,1.86,1.86,0,0,0,1.31,1q.65.16,1.46-.85a1.86,1.86,0,0,1,2-.72q1.46.35,2.66,3.5Q86.57,69.5,88,73.11Zm-11.27-6a8.95,8.95,0,0,0-6.51-10.61A9,9,0,0,0,59.5,63a8,8,0,0,0,1.14,6.6,8.78,8.78,0,0,0,5.49,4,8.68,8.68,0,0,0,6.73-.94A8.22,8.22,0,0,0,76.73,67.09Zm-.81-.19a7.52,7.52,0,0,1-3.53,4.94,8.21,8.21,0,0,1-11-2.69A7.74,7.74,0,0,1,64,58.35,7.9,7.9,0,0,1,74.89,61,7.51,7.51,0,0,1,75.91,66.9Z"/></svg>