<svg id="Layer_1" data-name="Layer 1" xmlns="http://www.w3.org/2000/svg" viewBox="0 0 100 100"><defs><style>.cls-1{fill:#d0cac3;}.cls-2{fill:#04070e;}</style></defs><circle class="cls-1" cx="50" cy="50" r="50"/><path class="cls-2" d="M39.56,52.56l-2-3.77L38.88,48q7.76-4.72,14.19-9.56t6.43-11a9.12,9.12,0,0,0-3.08-7,10.36,10.36,0,0,0-7.24-2.83q-9.66,0-20.39,12L25.42,27Q36.6,10,52.76,10a20.56,20.56,0,0,1,12.12,3.5,12.28,12.28,0,0,1,5.66,10.64q0,4.84-4,9.43a52,52,0,0,1-8.08,7L56.8,41.79a21.18,21.18,0,0,1,2.56-.13,15.26,15.26,0,0,1,12.19,5.66,19.82,19.82,0,0,1,4.78,13.2q0,12.8-10.77,21.42a35.53,35.53,0,0,1-23,8.08q-12,0-18.86-5.25l2.43-3.37q8.08,3.91,14.68,3.91a25.61,25.61,0,0,0,17-6.33A19.81,19.81,0,0,0,65.28,63.2a15.66,15.66,0,0,0-3.77-10.58,12.37,12.37,0,0,0-9.83-4.37Q46.16,48.25,39.56,52.56Z"/></svg>