<svg id="Layer_1" data-name="Layer 1" xmlns="http://www.w3.org/2000/svg" viewBox="0 0 100 100"><defs><style>.cls-1{fill:#c2b7ae;}.cls-2{fill:#04070e;}</style></defs><circle class="cls-1" cx="50" cy="50" r="50"/><path class="cls-2" d="M90.7,48.62q0,8.28-6,11.29-1.76.88-11,2.38-6,1-6,4.64V77.09c0,.42.12,1.71.37,3.89l.38,4a34.75,34.75,0,0,1-.88,6.14L62,92.26a24.47,24.47,0,0,1-1-5.14,8.69,8.69,0,0,1,.31-1.88,8.7,8.7,0,0,0,.32-1.88A22,22,0,0,0,60,78.47H58.1a2.46,2.46,0,0,0-.26,1.63,12,12,0,0,1,.38,3.64q-2.13,1.51-5.89,4c-.59-.17-.79-.25-.63-.25v-8.9c-.16-.42-.58-.58-1.25-.5h-1.5l-1.5,11.79a35.87,35.87,0,0,1-4.26,0Q42.28,85.74,40,77.59H39Q37.64,82,37.52,82.36a11.24,11.24,0,0,0,.31,1.94,11.57,11.57,0,0,1,.31,1.94,16.69,16.69,0,0,1-.25,1.88l-.38,3a.86.86,0,0,1-.63.25q-3.76,0-5-1.88a8.3,8.3,0,0,1-1-5.27l1-15a2.86,2.86,0,0,1,.25-1,3,3,0,0,0,.25-.88q0-1-2.13-4c-.25-.08-1.55-.38-3.89-.88q-2.14-.5-8.4-1.76Q9.3,59,9.3,46.74q0-18.31,15.05-30.47.62,3.39,2.13,9l4.89,1.13q.76.25,7.65,2.76a78.19,78.19,0,0,1-9.16-6.9q-2.13-2.51-2.13-8.4,0-1.38,4.77-3.26a27.41,27.41,0,0,1,6.4-2,88,88,0,0,1,10.41-.88q15.67,0,25.33,8-3.13,3.64-10.78,7.77,3,.13,8.78-2.38t4.89-2.51q1,0,4,4a56.85,56.85,0,0,1,3.64,5.39,47.17,47.17,0,0,1,5.39,15.43q0,2.89.12,4.14Zm-48,2.26q0-5.39-4.7-10.22t-10.1-4.83a11,11,0,0,0-8.4,4,13.09,13.09,0,0,0-3.64,9A5.32,5.32,0,0,0,20,54.38a30.91,30.91,0,0,0,7.4.88h6.9Q42.66,55.39,42.66,50.88ZM56.33,66.43V62.54q-.88-1.63-1.75-3.39a64.22,64.22,0,0,0-2.76-7L50.44,66.8q0,1.76-.75,1.76a1,1,0,0,1-.75-.25Q48.05,55,48.05,56.77V52.38a.73.73,0,0,0-.62-.38q-4.27,4.39-4.26,14.17,0,5.39,1,6.65a11.16,11.16,0,0,0,2.26-.88,9.14,9.14,0,0,1,2.89-.25,14.76,14.76,0,0,1,5.77,1.5Q56.33,73.2,56.33,66.43ZM84.68,49a12.78,12.78,0,0,0-3.76-9,11.61,11.61,0,0,0-8.65-4Q67,36,62.42,40.78t-4.58,10.1q0,4.39,4.26,4.39H76.52Q84.67,55.14,84.68,49Z"/></svg>