<svg id="Layer_1" data-name="Layer 1" xmlns="http://www.w3.org/2000/svg" viewBox="0 0 100 100"><defs><style>.cls-1{fill:#9cc497;}.cls-2{fill:#c2b7ae;}.cls-3{fill:#04070e;}</style></defs><path class="cls-1" d="M85.35,14.64a50,50,0,1,1-70.7,70.72"/><path class="cls-2" d="M14.65,85.35a50,50,0,0,1,70.7-70.72"/><path class="cls-3" d="M53.26,28.11q0,4.05-2.95,5.53a28.38,28.38,0,0,1-5.4,1.17Q42,35.3,42,37.07v5c0,.21.06.84.18,1.91l.18,2a17,17,0,0,1-.43,3l-2.7.55A12,12,0,0,1,38.71,47a4.18,4.18,0,0,1,.15-.92,4.22,4.22,0,0,0,.15-.92,10.74,10.74,0,0,0-.76-2.39h-1a1.21,1.21,0,0,0-.13.8,5.89,5.89,0,0,1,.19,1.78q-1,.74-2.89,2c-.29-.08-.39-.12-.31-.12V42.79c-.08-.2-.29-.29-.61-.25h-.74l-.74,5.77a17.52,17.52,0,0,1-2.09,0q-.43-2-1.54-6H28l-.74,2.33a5.53,5.53,0,0,0,.16,1,5.72,5.72,0,0,1,.15,1,7.93,7.93,0,0,1-.12.92l-.18,1.47a.42.42,0,0,1-.31.12,2.76,2.76,0,0,1-2.46-.92A4.05,4.05,0,0,1,24,45.55l.49-7.37a1.39,1.39,0,0,1,.12-.49,1.4,1.4,0,0,0,.12-.43,4.94,4.94,0,0,0-1-2q-.18-.06-1.9-.43-1-.24-4.11-.86-4.24-.8-4.24-6.82a18.43,18.43,0,0,1,7.37-14.92q.31,1.66,1,4.42l2.39.55L28,18.6a38.17,38.17,0,0,1-4.48-3.38,6.36,6.36,0,0,1-1-4.11q0-.68,2.33-1.6a13.4,13.4,0,0,1,3.13-1A42.79,42.79,0,0,1,33,8.1q7.67,0,12.4,3.93a19.11,19.11,0,0,1-5.28,3.81,10.84,10.84,0,0,0,4.3-1.17q2.82-1.22,2.39-1.23.49,0,2,2A28,28,0,0,1,50.55,18a23.08,23.08,0,0,1,2.64,7.55c0,.94,0,1.62.06,2ZM29.74,29.22a7.13,7.13,0,0,0-2.3-5,6.85,6.85,0,0,0-4.94-2.36,5.41,5.41,0,0,0-4.11,2,6.41,6.41,0,0,0-1.78,4.39,2.6,2.6,0,0,0,2,2.72,15.2,15.2,0,0,0,3.62.43h3.38Q29.74,31.43,29.74,29.22Zm6.69,7.61v-1.9q-.43-.8-.86-1.66a32,32,0,0,0-1.35-3.44L33.55,37c0,.58-.12.86-.37.86a.5.5,0,0,1-.37-.12q-.43-6.51-.43-5.65V30a.36.36,0,0,0-.31-.19Q30,31.92,30,36.71c0,1.76.16,2.84.49,3.26a5.6,5.6,0,0,0,1.11-.43A4.45,4.45,0,0,1,33,39.41a7.25,7.25,0,0,1,2.82.74Q36.43,40.15,36.43,36.83Zm13.88-8.55a6.26,6.26,0,0,0-1.84-4.42,5.68,5.68,0,0,0-4.23-1.95,6.6,6.6,0,0,0-4.82,2.36,7.15,7.15,0,0,0-2.24,4.94,1.87,1.87,0,0,0,2.09,2.15h7.06Q50.31,31.3,50.31,28.28Z"/><path class="cls-3" d="M89.52,67.62a2.87,2.87,0,0,1-.88,2,2.73,2.73,0,0,1-2,.91A2.8,2.8,0,0,1,84,68.87l-2.67-.11a15,15,0,0,0-3.34.74,8.69,8.69,0,0,0-3.06,1.19,6.91,6.91,0,0,0-1,3.18,20.27,20.27,0,0,0-.34,3A4.08,4.08,0,0,0,74,79.1a3.73,3.73,0,0,0,2,1.19c1,.32,1.62.5,1.84.54a7.2,7.2,0,0,0,.74-.06h.68a5.66,5.66,0,0,1,1.53.23q1.13.34,1,.91a9,9,0,0,0-2.78.34l1.59.79c0,.45-.64.68-1.93.68a5.87,5.87,0,0,1-1.39-.22,5.85,5.85,0,0,0-1.16-.23h-.74A13.11,13.11,0,0,1,75,85a4.24,4.24,0,0,1-2.27-1.13,4.61,4.61,0,0,0-1.64-1.08c-.23,0-.55.36-1,1.08a3.84,3.84,0,0,0-.62,1.47,3.13,3.13,0,0,1-1.25-1.47c-.15-.5-.32-1-.51-1.48q-.57.06-2.1,2.38h-.28q-.12-.17-.85-2.38a10.82,10.82,0,0,0-3.29-.56,11.6,11.6,0,0,0-2.27.34L57.36,82a12.92,12.92,0,0,1,2-1.3,6.63,6.63,0,0,1,2.95-1.14,2.55,2.55,0,0,1,.45.06,2.27,2.27,0,0,0,.45.06,3.47,3.47,0,0,0,1.28-.43c.59-.28.93-.54,1-.77a6.09,6.09,0,0,0,.14-1.76,6.29,6.29,0,0,0-1.7-4.82,9.49,9.49,0,0,0-4.88-2q-.91,3.23-5.1,3.23a3.7,3.7,0,0,1-2.72-1.65,4.93,4.93,0,0,1-1.36-3A4.2,4.2,0,0,1,51.63,65a4.37,4.37,0,0,1-1.42-3,3.83,3.83,0,0,1,.88-2.5,3.39,3.39,0,0,1,2.3-1.25,2.38,2.38,0,0,1,1.19-2.5A3.09,3.09,0,0,1,54,53.55a4.26,4.26,0,0,1,4.36-4.37,4.35,4.35,0,0,1,3.35,1.42Q63.32,45,68.76,45a6.69,6.69,0,0,1,5,2.27,7.46,7.46,0,0,1,.79.91q-.68,0,.68-.25a12.12,12.12,0,0,1,2-.26,5.48,5.48,0,0,1,3.92,1.65,7.88,7.88,0,0,1,2,3.74,8.27,8.27,0,0,1,1.25.34,2.21,2.21,0,0,1,1.25,2.16,2.92,2.92,0,0,1-.45,1.08q3.63,2,3.63,5.67A7.76,7.76,0,0,1,88,65.12,2.72,2.72,0,0,1,89.52,67.62Zm-23.37,2.5v-.74A3.1,3.1,0,0,0,64.88,67a4,4,0,0,0-2.58-1.08,6.12,6.12,0,0,0-2.95.74Q62.35,66.49,66.15,70.11Zm-1-7a14.4,14.4,0,0,1-1.47-2q-2.38.62-2.38,1.42a6.83,6.83,0,0,1,2,.26A9.17,9.17,0,0,0,65.13,63.08Zm3.46-1.76v-2.5a16.15,16.15,0,0,0-1.64-.23v.85ZM76,59.74q-.68-.28-2.55-1.13v4.88Q76.08,61.94,76,59.74Zm3.12,6.69L77.83,64.9l-2.3,1.62a10.39,10.39,0,0,0-2,1.84A19.34,19.34,0,0,1,79.08,66.43Z"/></svg>