<svg id="Layer_1" data-name="Layer 1" xmlns="http://www.w3.org/2000/svg" viewBox="0 0 100 100"><defs><style>.cls-1{fill:#f8a076;}.cls-2{fill:#c2b7ae;}.cls-3{fill:#04070e;}</style></defs><path class="cls-1" d="M85.35,14.64a50,50,0,1,1-70.7,70.72"/><path class="cls-2" d="M14.65,85.35a50,50,0,0,1,70.7-70.72"/><path class="cls-3" d="M88.3,74.44q-2.58,6.15-10.24,6.15a14.56,14.56,0,0,0-3,.35q-2.46.53-2.46,1.46a1,1,0,0,0,.41.67,1.15,1.15,0,0,0,.7.38q-1.46,0,2,.08t4.33.09q-5.09,3-17,2.75a8.65,8.65,0,0,1-6.73-3.45,10.8,10.8,0,0,1-2.75-7.2,10,10,0,0,1,2.84-7.17,9.38,9.38,0,0,1,7.05-3,10.3,10.3,0,0,1,2.49.41,10.3,10.3,0,0,0,2.08.41,11.77,11.77,0,0,0,5.38-1.79,24.86,24.86,0,0,0,3-1.78q-.59,6.14-4.1,8.25Q69.75,72.57,69.75,74a1.58,1.58,0,0,0,1.05,1.41,3.56,3.56,0,0,0,4.8-1.46,4.79,4.79,0,0,0,1.29-3.39,16.38,16.38,0,0,1,.23-4.21A4.46,4.46,0,0,1,78,64.58a3.5,3.5,0,0,1,1.32-1.26,6.93,6.93,0,0,1-.38,1.75,6.92,6.92,0,0,0-.38,1.82,2.68,2.68,0,0,0,.7,2q1.05-.41,1.87-2.63A10.7,10.7,0,0,0,81.92,63a7.39,7.39,0,0,1-4.71-2.23A6.2,6.2,0,0,1,75,56.18a2.9,2.9,0,0,1,.12-.82L76.13,57c.66,1,1.17,1.46,1.52,1.46s.7-.49.7-1.46a6.07,6.07,0,0,0-1-3.39,3.29,3.29,0,0,0-2.87-1.81,6,6,0,0,0-2.46.88,6.44,6.44,0,0,1-3,.88,26.47,26.47,0,0,1-3.63-1.05q5.67-.94,5.68-1.7,0-2-7.78-2.69l-2.81-.24q.23-.29,3.34-.64c1.75-.19,3-.29,3.68-.29q13.93,0,17.67,13.52a2.19,2.19,0,0,0,.64-1.78,11.74,11.74,0,0,0-.94-4q-.35-1-1.11-2.85,4.8,6.11,4.8,11.58a10.35,10.35,0,0,1-1.35,5.23A21.15,21.15,0,0,1,84,72.67a28.59,28.59,0,0,0-3.28,3.82,32.17,32.17,0,0,0,4.21-1.35,12.24,12.24,0,0,0,4-3A6.61,6.61,0,0,1,88.3,74.44Zm-25.51-23a1.32,1.32,0,0,1-1.17,1.35L60.09,53q-.82.41-2.4,3.22c-.12-.58-.29-1.4-.53-2.46a4.79,4.79,0,0,0-1.75.93q-.53.41-1.7,1.23a8.57,8.57,0,0,1,2.34-4.27q2.11-2.4,4.1-2.4Q62.79,49.28,62.79,51.44ZM73,56.83a2,2,0,0,1-1.08,1.67,4,4,0,0,1-2.14.67,3.11,3.11,0,0,1-2.52-1.58,6.78,6.78,0,0,0-2.75-2.52,1,1,0,0,1,.7-.29A4.16,4.16,0,0,1,67,55.6a4.58,4.58,0,0,0,1.61.82c.2,0,.52-.27,1-.82A1.92,1.92,0,0,1,71,54.78Q73,54.78,73,56.83Z"/><path class="cls-3" d="M53.26,28.11q0,4.05-2.95,5.53a28.35,28.35,0,0,1-5.4,1.17Q42,35.3,42,37.07v5c0,.21.06.84.18,1.91l.18,2a17,17,0,0,1-.43,3l-2.7.55A12,12,0,0,1,38.71,47a4.21,4.21,0,0,1,.15-.92,4.21,4.21,0,0,0,.15-.92,10.72,10.72,0,0,0-.76-2.39h-1a1.21,1.21,0,0,0-.13.8,5.84,5.84,0,0,1,.19,1.78q-1,.74-2.89,2c-.29-.08-.39-.12-.31-.12V42.79c-.08-.2-.29-.29-.61-.25h-.74l-.74,5.77a17.53,17.53,0,0,1-2.09,0q-.43-2-1.53-6H28l-.74,2.33a5.53,5.53,0,0,0,.16,1,5.72,5.72,0,0,1,.15,1,8,8,0,0,1-.12.92l-.18,1.47a.42.42,0,0,1-.31.12,2.76,2.76,0,0,1-2.45-.92A4,4,0,0,1,24,45.55l.49-7.37a1.41,1.41,0,0,1,.12-.49,1.42,1.42,0,0,0,.12-.43,4.94,4.94,0,0,0-1-2q-.18-.06-1.9-.43-1-.24-4.11-.86-4.24-.8-4.24-6.82a18.43,18.43,0,0,1,7.37-14.92q.31,1.66,1,4.42l2.39.55L28,18.6a38.17,38.17,0,0,1-4.48-3.38,6.36,6.36,0,0,1-1-4.11q0-.68,2.33-1.6a13.42,13.42,0,0,1,3.13-1A42.8,42.8,0,0,1,33,8.1q7.67,0,12.4,3.93a19.11,19.11,0,0,1-5.28,3.81,10.84,10.84,0,0,0,4.3-1.17q2.82-1.22,2.39-1.23.49,0,2,2A28,28,0,0,1,50.55,18a23.08,23.08,0,0,1,2.64,7.55q0,1.41.06,2ZM29.74,29.22a7.13,7.13,0,0,0-2.3-5,6.85,6.85,0,0,0-4.94-2.36,5.41,5.41,0,0,0-4.11,2,6.42,6.42,0,0,0-1.78,4.39,2.6,2.6,0,0,0,2,2.72,15.19,15.19,0,0,0,3.62.43h3.38Q29.74,31.43,29.74,29.22Zm6.69,7.61v-1.9q-.43-.8-.86-1.66a32,32,0,0,0-1.35-3.44L33.55,37c0,.58-.12.86-.37.86a.5.5,0,0,1-.37-.12q-.43-6.51-.43-5.65V30a.36.36,0,0,0-.31-.19Q30,31.92,30,36.71c0,1.76.16,2.84.49,3.26a5.6,5.6,0,0,0,1.11-.43A4.44,4.44,0,0,1,33,39.41a7.25,7.25,0,0,1,2.82.74Q36.43,40.15,36.43,36.83Zm13.88-8.55a6.26,6.26,0,0,0-1.84-4.42,5.68,5.68,0,0,0-4.23-1.95,6.6,6.6,0,0,0-4.82,2.36,7.15,7.15,0,0,0-2.24,4.94,1.87,1.87,0,0,0,2.09,2.15h7.06Q50.31,31.3,50.31,28.28Z"/></svg>