<svg id="Layer_1" data-name="Layer 1" xmlns="http://www.w3.org/2000/svg" viewBox="0 0 100 100"><defs><style>.cls-1{fill:#d0cac3;}.cls-2{fill:#04070e;}</style></defs><circle class="cls-1" cx="50" cy="50" r="50"/><path class="cls-2" d="M23,52.43a59.67,59.67,0,0,1,6.19-27.07Q36.87,10,50.2,10T70.81,23.06Q77,33.84,77,48.12a57.52,57.52,0,0,1-6.19,26.8Q63.26,90,49.8,90,37,90,29.46,77.07A47.89,47.89,0,0,1,23,52.43ZM34.31,48q0,19.39,5.79,30.17,4,7.54,10.37,7.54,15.22,0,15.22-31.52a97,97,0,0,0-2.42-23.43Q59.09,15,49.13,15,34.31,15,34.31,45.43Z"/></svg>