<svg id="Layer_1" data-name="Layer 1" xmlns="http://www.w3.org/2000/svg" viewBox="0 0 188 100"><defs><style>.cls-1{fill:#d0cac3;}.cls-2{fill:#04070e;}</style></defs><path class="cls-1" d="M138,0H50a50,50,0,1,0,0,100h88A50,50,0,1,0,138,0Z"/><path class="cls-2" d="M43.58,13V72.3q0,10.64,9,10.64h1.56V87H22.54V82.94h2q8.67,0,8.67-10.64V33.4q0-10.77-7.47-10.77H22.54V18.7h1.14A26.92,26.92,0,0,0,40.41,13Z"/><path class="cls-2" d="M63.13,52.25a55.21,55.21,0,0,1,5.73-25Q76,13,88.29,13t19.06,12.08q5.73,10,5.73,23.17A53.21,53.21,0,0,1,107.35,73q-7,14-19.44,14Q76.08,87,69.1,75A44.28,44.28,0,0,1,63.13,52.25Zm10.46-4.11q0,17.94,5.36,27.91,3.73,7,9.59,7,14.08,0,14.08-29.15a89.75,89.75,0,0,0-2.24-21.68Q96.51,17.61,87.29,17.61q-13.71,0-13.71,28.16Z"/><path class="cls-2" d="M124.46,52.25a55.21,55.21,0,0,1,5.73-25Q137.29,13,149.62,13t19.06,12.08q5.73,10,5.73,23.17A53.21,53.21,0,0,1,168.68,73q-7,14-19.44,14-11.84,0-18.81-12A44.28,44.28,0,0,1,124.46,52.25Zm10.46-4.11q0,17.94,5.36,27.91,3.73,7,9.59,7,14.08,0,14.08-29.15a89.75,89.75,0,0,0-2.24-21.68q-3.86-14.58-13.08-14.58-13.71,0-13.71,28.16Z"/></svg>