<svg id="Layer_1" data-name="Layer 1" xmlns="http://www.w3.org/2000/svg" viewBox="0 0 100 100"><defs><style>.cls-1{fill:#d0cac3;}.cls-2{fill:#04070e;}</style></defs><circle class="cls-1" cx="50" cy="50" r="50"/><path class="cls-2" d="M39.83,18.32V69.16q0,9.07,7.54,9.07h1.28v3.45H21.57V78.23h1.79q7.66,0,7.67-9.07V35.82q0-9.2-6.52-9.2H21.82V23.18h1a23,23,0,0,0,14.3-4.86Zm32.45,0V69.16q0,9.07,7.54,9.07H81.1v3.45H54V78.23H55.8q7.67,0,7.67-9.07V35.82q0-9.2-6.51-9.2H54.27V23.18h1A23.06,23.06,0,0,0,69.6,18.32Z"/></svg>