<svg id="Layer_1" data-name="Layer 1" xmlns="http://www.w3.org/2000/svg" viewBox="0 0 100 100"><defs><style>.cls-1{fill:#d0cac3;}.cls-2{fill:#04070e;}</style></defs><circle class="cls-1" cx="50" cy="50" r="50"/><path class="cls-2" d="M36.31,19.47V68.52q0,8.68,7.28,8.68h1.15v3.32H18.68V77.21h1.66q7.41,0,7.41-8.68V36.33q0-8.82-6.26-8.82H18.93V24.2h1a21.84,21.84,0,0,0,13.66-4.72Zm43,43.69v5.11q0,8.56,6,8.56H87v3.32H62.62V76.83h1.92q6,0,6-8.43V63.16H46V58L71.94,20.23h7.41V58.81H80q3.7,0,5.49-5.87h3.07L87,63.16ZM72.58,58V25.86L50.87,58Z"/></svg>