<svg id="Layer_1" data-name="Layer 1" xmlns="http://www.w3.org/2000/svg" viewBox="0 0 100 100"><defs><style>.cls-1{fill:#d0cac3;}.cls-2{fill:#04070e;}</style></defs><circle class="cls-1" cx="50" cy="50" r="50"/><path class="cls-2" d="M33.71,19.15V68.46q0,8.82,7.29,8.81h1.15V80.6H16V77.27h1.79q7.41,0,7.41-8.81V36.14q0-8.94-6.39-8.94H16.21V23.88h1A22,22,0,0,0,31,19.15ZM66.42,81H57.47V80q0-8.56,5.36-21.59Q71,38.95,77.91,28.48l.52-.89h-21q-4.6,0-7,1.91t-3.64,6.39H43.42L47.25,19h2.3c1.27.6,3.58.89,6.9.89H84v4.86a53.81,53.81,0,0,0-3.83,6.9A134,134,0,0,0,72,51.85Q66.54,69,66.42,81Z"/></svg>