<svg id="Layer_1" data-name="Layer 1" xmlns="http://www.w3.org/2000/svg" viewBox="0 0 100 100"><defs><style>.cls-1{fill:#d0cac3;}.cls-2{fill:#04070e;}</style></defs><circle class="cls-1" cx="50" cy="50" r="50"/><path class="cls-2" d="M37.16,18.57V68.78q0,8.94,7.54,8.94H46v3.45H19.15V77.72h1.79q7.54,0,7.54-8.94v-33q0-9.07-6.39-9.07H19.41V23.3h1a23.27,23.27,0,0,0,14.18-4.73ZM77.91,54.34q-7,6.64-14,6.64a14.81,14.81,0,0,1-12.39-6.26,21.36,21.36,0,0,1-4.21-13.41,25.2,25.2,0,0,1,5-15.33q5.62-7.28,13.92-7.28,10.09,0,16,8.69a30.91,30.91,0,0,1,5.49,18.26q0,15.08-9.9,25.36T52.88,81.42V78.1a34.71,34.71,0,0,0,7.28-1Q75.36,72.48,77.91,54.34Zm.64-6.26c.08-1.36.13-2.63.13-3.83a34.85,34.85,0,0,0-2.56-13.54q-3.45-8-9.71-8-5.49,0-8,5.49A23.67,23.67,0,0,0,56.2,38.63a28.19,28.19,0,0,0,2,11.24q2.68,6.26,8.43,6.26Q73.57,56.13,78.55,48.08Z"/></svg>