<svg id="Layer_1" data-name="Layer 1" xmlns="http://www.w3.org/2000/svg" viewBox="0 0 100 100"><defs><style>.cls-1{fill:#d0cac3;}.cls-2{fill:#04070e;}</style></defs><circle class="cls-1" cx="50" cy="50" r="50"/><path class="cls-2" d="M53.24,63.27,48.77,78.21H12V75.14Q14.67,72.08,23.87,63q5.36-5.49,10.73-11.5a33.09,33.09,0,0,0,4.09-5.24A16.17,16.17,0,0,0,42,36.7a12.6,12.6,0,0,0-3-8.24,9.44,9.44,0,0,0-7.6-3.64q-10,0-15.59,13.54l-3.45-1.28q6.77-19,21.2-19a16.94,16.94,0,0,1,12.2,4.85,16,16,0,0,1,5,12q0,9.08-10.6,17.76l-7.15,6A119.49,119.49,0,0,0,21.69,69.52a7.1,7.1,0,0,0-1.28,1.54H39.58q4.47,0,6.77-1.92,1.92-1.53,3.83-5.88Zm-.51-13.41a46.35,46.35,0,0,1,4.6-20.56q6-11.75,16.22-11.75,9.83,0,15.71,10.09a38,38,0,0,1,4.59,18.9A45.15,45.15,0,0,1,89.27,67q-6,11.49-16.1,11.49-9.71,0-15.58-9.84A36.48,36.48,0,0,1,52.73,49.85Zm8.69-3.45a65.44,65.44,0,0,0,2,17.12q3.06,11.76,10.22,11.75,11.62,0,11.63-24.14,0-29.89-12.65-29.89-11.24,0-11.24,23.25Z"/></svg>