<svg id="Layer_1" data-name="Layer 1" xmlns="http://www.w3.org/2000/svg" viewBox="0 0 100 100"><defs><style>.cls-1{fill:#d0cac3;}.cls-2{fill:#04070e;}</style></defs><circle class="cls-1" cx="50" cy="50" r="50"/><path class="cls-2" d="M35,11.35H63.9q5.63,0,6.7-1.35h4.16L72.34,20.92H37L33.61,36.71a37.07,37.07,0,0,1,13.62-3.1A27,27,0,0,1,66.8,41.37a25.93,25.93,0,0,1,8,19.36A26.35,26.35,0,0,1,64.37,82.45Q54.79,90,41,90a52.14,52.14,0,0,1-15.79-2.43l1.62-4a44.55,44.55,0,0,0,11.47,1.75A25.73,25.73,0,0,0,55.8,78.74a20.86,20.86,0,0,0,7.49-16.39,18.77,18.77,0,0,0-5.53-14,19.13,19.13,0,0,0-14-5.47,22.89,22.89,0,0,0-14.57,5.4l-2.7-.54Z"/></svg>