<svg id="Layer_1" data-name="Layer 1" xmlns="http://www.w3.org/2000/svg" viewBox="0 0 100 100"><defs><style>.cls-1{fill:#d0cac3;}.cls-2{fill:#04070e;}</style></defs><circle class="cls-1" cx="50" cy="50" r="50"/><path class="cls-2" d="M36.58,44.67q8.9-8.37,17.94-8.36a18.84,18.84,0,0,1,15.79,7.82A27.42,27.42,0,0,1,75.84,61.4a30.83,30.83,0,0,1-6.47,19.42Q62.21,90,51.55,90q-12.82,0-20.5-11.06-6.88-9.71-6.88-23.07A46.66,46.66,0,0,1,32,29.77,42.62,42.62,0,0,1,52.9,12.84,43.55,43.55,0,0,1,68.55,10v4.18q-17.54.95-26.17,14A39.38,39.38,0,0,0,36.58,44.67Zm-.81,8.09q-.13,2.43-.13,4.86a45.42,45.42,0,0,0,3.24,17.27Q43,85.28,51.15,85.28q7,0,10.52-7.15a30.23,30.23,0,0,0,2.7-13.36,36,36,0,0,0-2.56-14.3Q58.29,42.38,51,42.38,42.11,42.38,35.77,52.77Z"/></svg>