<svg id="Layer_1" data-name="Layer 1" xmlns="http://www.w3.org/2000/svg" viewBox="0 0 100 100"><defs><style>.cls-1{fill:#d0cac3;}.cls-2{fill:#04070e;}</style></defs><circle class="cls-1" cx="50" cy="50" r="50"/><path class="cls-2" d="M41,49.46l-1.75-1.21Q31.54,43,29.11,39.76A15,15,0,0,1,26,30.34q0-9.16,7.68-14.95A26.75,26.75,0,0,1,50.26,10,27.19,27.19,0,0,1,66,14.71q7.8,5.25,7.81,13.88,0,10.51-14.68,17Q75.84,53.64,75.85,68A19.57,19.57,0,0,1,67.9,84.48Q60.77,90,50,90a29.4,29.4,0,0,1-17.38-5.12q-8.35-5.78-8.35-15.35t8.89-15.76A80.62,80.62,0,0,1,41,49.46Zm4.57,1.91Q33.42,56.89,33.43,68.74q0,7.67,4.92,12.31a17.59,17.59,0,0,0,12.59,4.64A18.48,18.48,0,0,0,62.58,82a12.27,12.27,0,0,0,4.78-10.28q0-9.94-13.1-16.12Zm9-8Q65.2,38.69,65.21,29.26A13.06,13.06,0,0,0,60.7,18.89,16.4,16.4,0,0,0,49.59,15a15.74,15.74,0,0,0-9.56,3,10.14,10.14,0,0,0-4.44,8.62q0,6.6,6.2,10.64Q43,38,52.55,42.46Z"/></svg>