<svg id="Layer_1" data-name="Layer 1" xmlns="http://www.w3.org/2000/svg" viewBox="0 0 100 100"><defs><style>.cls-1{fill:#d0cac3;}.cls-2{fill:#04070e;}</style></defs><circle class="cls-1" cx="50" cy="50" r="50"/><path class="cls-2" d="M63.4,55.52q-8.88,8.35-17.91,8.35a18.79,18.79,0,0,1-15.76-7.81,27.32,27.32,0,0,1-5.52-17.24,31.72,31.72,0,0,1,6.46-19.53q7-9.3,17.65-9.29,12.93,0,20.61,11.18Q75.8,31,75.79,44.48q0,19.12-12.66,32.26T31.48,90V85.83a38.69,38.69,0,0,0,9.3-1.34Q60.16,78.56,63.4,55.52Zm.81-8.08q.13-2.56.13-4.85a44.64,44.64,0,0,0-3.23-17.24Q56.8,15,48.73,15q-7,0-10.37,7.14a30.17,30.17,0,0,0-2.69,13.33,35.89,35.89,0,0,0,2.56,14.28q3.5,8.08,10.78,8.08Q57.88,57.82,64.21,47.44Z"/></svg>