<svg id="Layer_1" data-name="Layer 1" xmlns="http://www.w3.org/2000/svg" viewBox="0 0 100 100"><defs><style>.cls-1{fill:#9cc497;}.cls-2{fill:#04070e;}</style></defs><circle class="cls-1" cx="50" cy="50" r="50"/><path class="cls-2" d="M93.76,56.22a6.31,6.31,0,0,1-1.94,4.5,6,6,0,0,1-4.44,2A6.17,6.17,0,0,1,81.52,59l-5.87-.25a33.09,33.09,0,0,0-7.37,1.63Q62.41,62,61.53,63q-1.37,1.5-2.25,7a44.59,44.59,0,0,0-.75,6.62,8.94,8.94,0,0,0,1.06,4.93q1.06,1.56,4.37,2.62T68,85.33q.5,0,1.62-.12h1.5a12.41,12.41,0,0,1,3.37.5q2.5.75,2.12,2a19.76,19.76,0,0,0-6.12.75L74,90.2q0,1.5-4.25,1.5a13.08,13.08,0,0,1-3.06-.5,13.07,13.07,0,0,0-2.56-.5H62.53a28.84,28.84,0,0,1-.75,3.75q-2.13-.13-5-2.5t-3.62-2.37q-.75,0-2.12,2.37a8.5,8.5,0,0,0-1.37,3.25A6.86,6.86,0,0,1,46.92,92q-.5-1.63-1.12-3.25-1.25.13-4.62,5.25h-.63c-.17-.25-.79-2-1.87-5.25a23.69,23.69,0,0,0-7.25-1.25,25.78,25.78,0,0,0-5,.75L22.94,88a28.85,28.85,0,0,1,4.37-2.87q4.25-2.5,6.5-2.5a5.59,5.59,0,0,1,1,.13,5.14,5.14,0,0,0,1,.13,7.61,7.61,0,0,0,2.81-.94q1.94-.93,2.25-1.68a13.61,13.61,0,0,0,.32-3.87q0-7.12-3.75-10.62-3.25-3.12-10.74-4.5-2,7.12-11.24,7.12-3,0-6-3.62t-3-6.62a9.25,9.25,0,0,1,3.87-7.62Q7.2,47.23,7.2,43.86a8.44,8.44,0,0,1,1.94-5.5,7.45,7.45,0,0,1,5.06-2.75q-.25-4,2.62-5.5-1.37-1.37-1.37-4.87a9.4,9.4,0,0,1,9.62-9.62,9.57,9.57,0,0,1,7.37,3.13Q36.05,6.38,48,6.38a14.74,14.74,0,0,1,11,5,17.09,17.09,0,0,1,1.75,2q-1.5,0,1.5-.56a26.67,26.67,0,0,1,4.37-.56,12,12,0,0,1,8.62,3.62,17.34,17.34,0,0,1,4.5,8.24,18.05,18.05,0,0,1,2.75.75,4.88,4.88,0,0,1,2.75,4.75,6.41,6.41,0,0,1-1,2.37q8,4.5,8,12.49a17,17,0,0,1-1.75,6.25A6,6,0,0,1,93.76,56.22Zm-51.47,5.5V60.1a6.83,6.83,0,0,0-2.81-5.25,8.81,8.81,0,0,0-5.68-2.37,13.45,13.45,0,0,0-6.5,1.62Q33.92,53.73,42.29,61.72ZM40,46.23a31.54,31.54,0,0,1-3.25-4.37Q31.55,43.23,31.55,45a15.16,15.16,0,0,1,4.37.56A20.35,20.35,0,0,0,40,46.23Zm7.62-3.87v-5.5a35.51,35.51,0,0,0-3.62-.5v1.87Zm16.24-3.5q-1.5-.62-5.62-2.5V47.11Q64.16,43.73,63.91,38.86ZM70.78,53.6,68,50.23,63,53.79a23,23,0,0,0-4.43,4.06A42.63,42.63,0,0,1,70.78,53.6Z"/></svg>