<svg id="Layer_1" data-name="Layer 1" xmlns="http://www.w3.org/2000/svg" viewBox="0 0 100 100"><defs><style>.cls-1{fill:#bcd9e8;}.cls-2{fill:#9cc497;}.cls-3{fill:#04070e;}</style></defs><path class="cls-1" d="M85.35,14.64a50,50,0,1,1-70.7,70.72"/><path class="cls-2" d="M14.65,85.35a50,50,0,0,1,70.7-70.72"/><path class="cls-3" d="M76.72,83.67a13.4,13.4,0,0,1-9.95,4.11,13.14,13.14,0,0,1-10.52-4.54,16.42,16.42,0,0,1-3.68-11q0-7.21,6.27-16.43a62.12,62.12,0,0,1,12-13.26,35.46,35.46,0,0,0-1,6.56,15.61,15.61,0,0,0,2.81,8.72q3.46,5,5.26,7.5a15.05,15.05,0,0,1,2.81,8.29A13.84,13.84,0,0,1,76.72,83.67Zm-.07-15.39a6.52,6.52,0,0,0-2.52-3.21,2.78,2.78,0,0,1,.22,1.22,16,16,0,0,1-.86,4.33l-.94,2.88A2.23,2.23,0,0,0,75.06,76q2.67,0,2.67-3.53A10.59,10.59,0,0,0,76.65,68.29Z"/><path class="cls-3" d="M51.64,34.29a2.87,2.87,0,0,1-.88,2,2.73,2.73,0,0,1-2,.91,2.8,2.8,0,0,1-2.66-1.7l-2.67-.11a15,15,0,0,0-3.35.74A8.66,8.66,0,0,0,37,37.35a6.91,6.91,0,0,0-1,3.18,20.27,20.27,0,0,0-.34,3,4.08,4.08,0,0,0,.48,2.24,3.73,3.73,0,0,0,2,1.19c1,.32,1.62.5,1.84.54s.4,0,.74-.06h.68a5.66,5.66,0,0,1,1.53.23q1.13.34,1,.91a9.05,9.05,0,0,0-2.78.34l1.59.79c0,.45-.64.68-1.93.68a5.93,5.93,0,0,1-1.39-.22,5.85,5.85,0,0,0-1.16-.23h-.74a13.35,13.35,0,0,1-.34,1.7,4.25,4.25,0,0,1-2.27-1.13,4.61,4.61,0,0,0-1.64-1.08c-.23,0-.55.36-1,1.08A3.85,3.85,0,0,0,31.62,52a3.13,3.13,0,0,1-1.25-1.47q-.23-.74-.51-1.48-.57.06-2.1,2.38h-.28q-.11-.17-.85-2.38a10.8,10.8,0,0,0-3.29-.57,11.55,11.55,0,0,0-2.27.34l-1.59-.11a12.87,12.87,0,0,1,2-1.31,6.62,6.62,0,0,1,2.95-1.14,2.55,2.55,0,0,1,.45.06,2.28,2.28,0,0,0,.45.06,3.47,3.47,0,0,0,1.28-.43c.59-.28.93-.54,1-.76a6.09,6.09,0,0,0,.14-1.76,6.29,6.29,0,0,0-1.7-4.82,9.51,9.51,0,0,0-4.88-2q-.91,3.23-5.1,3.23a3.7,3.7,0,0,1-2.72-1.64,4.94,4.94,0,0,1-1.36-3,4.2,4.2,0,0,1,1.76-3.46,4.36,4.36,0,0,1-1.42-3,3.83,3.83,0,0,1,.88-2.5,3.39,3.39,0,0,1,2.3-1.25,2.37,2.37,0,0,1,1.19-2.49,3.09,3.09,0,0,1-.62-2.21,4.27,4.27,0,0,1,4.36-4.37,4.35,4.35,0,0,1,3.35,1.42q1.65-5.61,7.09-5.61a6.69,6.69,0,0,1,5,2.27,7.38,7.38,0,0,1,.79.91q-.68,0,.68-.25a12.2,12.2,0,0,1,2-.26A5.48,5.48,0,0,1,43.25,16a7.88,7.88,0,0,1,2,3.74,8.15,8.15,0,0,1,1.25.34,2.22,2.22,0,0,1,1.25,2.16,2.91,2.91,0,0,1-.45,1.08Q51,25.33,51,29a7.75,7.75,0,0,1-.79,2.84A2.72,2.72,0,0,1,51.64,34.29Zm-23.37,2.5V36A3.1,3.1,0,0,0,27,33.66a4,4,0,0,0-2.58-1.08,6.1,6.1,0,0,0-2.95.74Q24.47,33.15,28.27,36.78Zm-1-7a14.4,14.4,0,0,1-1.47-2q-2.38.62-2.38,1.42a6.86,6.86,0,0,1,2,.26A9.12,9.12,0,0,0,27.25,29.75ZM30.71,28v-2.5a16.29,16.29,0,0,0-1.65-.23v.85Zm7.37-1.59q-.68-.28-2.55-1.13v4.88Q38.2,28.61,38.09,26.4Zm3.12,6.69L40,31.56l-2.3,1.62a10.36,10.36,0,0,0-2,1.84A19.31,19.31,0,0,1,41.2,33.09Z"/></svg>