<svg id="Layer_1" data-name="Layer 1" xmlns="http://www.w3.org/2000/svg" viewBox="0 0 100 100"><defs><style>.cls-1{fill:#f8f6da;}.cls-2{fill:#9cc497;}.cls-3{fill:#04070e;}</style></defs><path class="cls-1" d="M85.35,14.64a50,50,0,1,1-70.7,70.72"/><path class="cls-2" d="M14.65,85.35a50,50,0,0,1,70.7-70.72"/><path class="cls-3" d="M88,73.11q-3.65-3.4-4.85-3.68c-.58-.14-1.13.2-1.67,1a2,2,0,0,1-2.27.86,14,14,0,0,1-2.33-1A6,6,0,0,0,75.37,72a2.25,2.25,0,0,0,.55,1.62,2.55,2.55,0,0,0,1.3,1.17,4.93,4.93,0,0,0,1.09.09,4.93,4.93,0,0,1,.93.05q.67.16.08,2.59a37.16,37.16,0,0,1-2.79,6.89q-.09-5.86-1.66-6.24a2.9,2.9,0,0,0-1,.11,2.76,2.76,0,0,1-1.08.08q-1.57-.37-2.13-3.54-2.58-.22-3.1,2a2,2,0,0,0,.59,2c.56.59.82,1,.78,1.16q-.35,1.46-5.36,3.47-2.66,1.08-3.69,1.52A14.89,14.89,0,0,0,62,82.77a7.28,7.28,0,0,0,1.53-2.56q.13-.54-.88-1.82A2.76,2.76,0,0,1,61.93,76a5.63,5.63,0,0,1,1.19-2.12,2.22,2.22,0,0,0-1.49-1.21q-2.17-.52-2.5.89l-.35,1.46q-.37,1.8-3.14,1.14a44.07,44.07,0,0,1-6.86-2.67q6-.06,6.41-1.9a7.41,7.41,0,0,1,.1-1.35q.18-1.73,3.11-2.46.11-2.61-2-3.11c-.22-.05-.71.23-1.46.85a2.36,2.36,0,0,1-1.9.75q-1.3-.31-2.68-3.62-.64-1.64-2-4.89l2.18,1.9A6.82,6.82,0,0,0,53,61.06q.76.18,1.81-1A2.24,2.24,0,0,1,57,59.22a22.6,22.6,0,0,1,2,1.17,5.26,5.26,0,0,0,1.59-2.08,2.43,2.43,0,0,0-.43-1.68,2.19,2.19,0,0,0-1.24-1.18,3.44,3.44,0,0,0-.88,0,3.51,3.51,0,0,1-.88,0c-.65-.16-.78-1-.39-2.67q.15-.65,3-7.12a9.93,9.93,0,0,0,0,3.2c.18,2,.69,3,1.52,3.23a2.8,2.8,0,0,0,.95-.12,2.6,2.6,0,0,1,1.1-.08,2.45,2.45,0,0,1,1.72,1.9l.46,1.66A2.55,2.55,0,0,0,67.64,55a2.84,2.84,0,0,0,1.23-1.77,2.07,2.07,0,0,0-.57-2.06c-.57-.57-.83-1-.78-1.19q.27-1.14,4.5-3a27.69,27.69,0,0,1,4.35-1.65q-3.08,2.59-3.43,4a2.45,2.45,0,0,0,.53,1.85,5.47,5.47,0,0,1,1,1.77,5.23,5.23,0,0,1-.92,3.39,4.68,4.68,0,0,0,2,1.56,1.45,1.45,0,0,0,2-1.25c0-.11.06-.46.11-1.06a3.26,3.26,0,0,1,.15-1q.4-.71,3.16,0a54,54,0,0,1,7,2.7L84,57.44q-2.32.13-2.52.95a5.62,5.62,0,0,0,0,1.36,5.54,5.54,0,0,1-.05,1.42q-.18.76-1.31,1.17l-2.16.86a8.92,8.92,0,0,0,.53,1.62,1.86,1.86,0,0,0,1.31,1q.65.16,1.46-.85a1.86,1.86,0,0,1,2-.72q1.46.35,2.66,3.5Q86.57,69.5,88,73.11Zm-11.27-6a8.94,8.94,0,0,0-6.51-10.61A9,9,0,0,0,59.5,63a8.05,8.05,0,0,0,1.14,6.6,8.78,8.78,0,0,0,5.49,4,8.68,8.68,0,0,0,6.72-.94A8.22,8.22,0,0,0,76.73,67.09Zm-.81-.19a7.52,7.52,0,0,1-3.53,4.94,8.21,8.21,0,0,1-11-2.69A7.74,7.74,0,0,1,64,58.35,7.9,7.9,0,0,1,74.89,61,7.5,7.5,0,0,1,75.91,66.9Z"/><path class="cls-3" d="M51.64,34.32a2.86,2.86,0,0,1-.88,2,2.73,2.73,0,0,1-2,.91,2.8,2.8,0,0,1-2.66-1.7l-2.67-.12a15,15,0,0,0-3.35.74A8.7,8.7,0,0,0,37,37.38a6.89,6.89,0,0,0-1,3.17,20.29,20.29,0,0,0-.34,3,4.07,4.07,0,0,0,.48,2.24,3.72,3.72,0,0,0,2,1.19c1,.32,1.62.5,1.84.54a7.2,7.2,0,0,0,.74-.06h.68a5.62,5.62,0,0,1,1.53.23c.75.23,1.08.53,1,.91a8.89,8.89,0,0,0-2.78.34l1.59.79q0,.68-1.93.68a6,6,0,0,1-1.39-.23A5.86,5.86,0,0,0,38.2,50h-.74a13.4,13.4,0,0,1-.34,1.7,4.23,4.23,0,0,1-2.27-1.14,4.65,4.65,0,0,0-1.64-1.08c-.23,0-.55.36-1,1.08A3.88,3.88,0,0,0,31.62,52a3.11,3.11,0,0,1-1.25-1.48q-.23-.74-.51-1.47-.57.06-2.1,2.38h-.28q-.11-.17-.85-2.38a10.75,10.75,0,0,0-3.29-.57,11.84,11.84,0,0,0-2.27.34l-1.59-.11a13,13,0,0,1,2-1.3,6.64,6.64,0,0,1,2.95-1.13,2.53,2.53,0,0,1,.45.06,2.4,2.4,0,0,0,.45.06A3.44,3.44,0,0,0,26.6,46c.59-.28.93-.54,1-.76a6.09,6.09,0,0,0,.14-1.76,6.29,6.29,0,0,0-1.7-4.82,9.47,9.47,0,0,0-4.88-2q-.91,3.23-5.1,3.23a3.71,3.71,0,0,1-2.72-1.65,4.93,4.93,0,0,1-1.36-3,4.2,4.2,0,0,1,1.76-3.46,4.36,4.36,0,0,1-1.42-3,3.84,3.84,0,0,1,.88-2.5A3.38,3.38,0,0,1,15.51,25a2.38,2.38,0,0,1,1.19-2.5,3.09,3.09,0,0,1-.62-2.21,4.27,4.27,0,0,1,4.36-4.37,4.35,4.35,0,0,1,3.35,1.42q1.65-5.61,7.09-5.62a6.69,6.69,0,0,1,5,2.27,7.65,7.65,0,0,1,.79.91q-.68,0,.68-.25a12.21,12.21,0,0,1,2-.26A5.47,5.47,0,0,1,43.25,16a7.87,7.87,0,0,1,2,3.74,8.47,8.47,0,0,1,1.25.34,2.22,2.22,0,0,1,1.25,2.16,2.91,2.91,0,0,1-.45,1.08Q51,25.36,51,29a7.75,7.75,0,0,1-.79,2.84A2.72,2.72,0,0,1,51.64,34.32Zm-23.37,2.5v-.74A3.1,3.1,0,0,0,27,33.69a4,4,0,0,0-2.58-1.08,6.08,6.08,0,0,0-2.95.74Q24.47,33.18,28.27,36.81Zm-1-7a14.28,14.28,0,0,1-1.47-2q-2.38.63-2.38,1.42a6.88,6.88,0,0,1,2,.26A9.32,9.32,0,0,0,27.25,29.78ZM30.71,28v-2.5a16.42,16.42,0,0,0-1.65-.23v.85Zm7.37-1.59q-.68-.28-2.55-1.13v4.88Q38.2,28.65,38.09,26.43Zm3.12,6.69L40,31.59l-2.3,1.62a10.44,10.44,0,0,0-2,1.84A19.31,19.31,0,0,1,41.2,33.13Z"/></svg>