<svg id="Layer_1" data-name="Layer 1" xmlns="http://www.w3.org/2000/svg" viewBox="0 0 100 100"><defs><style>.cls-1{fill:#d0cac3;}.cls-2{fill:#04070e;}</style></defs><circle class="cls-1" cx="50" cy="50" r="50"/><path class="cls-2" d="M52.31,6.25V33.5q0,4.89,4.12,4.89h.71v1.87H42.64V38.38h.91q4,0,4-4.89V15.62q0-4.95-3.43-4.95H42.64V8.87h.52a12.38,12.38,0,0,0,7.69-2.62Z"/><path class="cls-2" d="M61.55,80.5,59,89H38.23V87.15q1.52-1.69,6.65-6.82Q48,77.23,51,73.8a26.9,26.9,0,0,0,2.33-2.92,9.33,9.33,0,0,0,1.81-5.36,7.27,7.27,0,0,0-1.66-4.72,5.26,5.26,0,0,0-4.29-2q-5.66,0-8.86,7.64l-1.87-.7Q42.25,55,50.42,55a9.5,9.5,0,0,1,6.86,2.74,9,9,0,0,1,2.83,6.77q0,5.13-5.89,10l-4.08,3.38A63.36,63.36,0,0,0,43.65,84c-.12.12-.35.39-.7.82H53.8a6.12,6.12,0,0,0,3.79-1,8.6,8.6,0,0,0,2.16-3.32Z"/><path class="cls-2" d="M20.73,49.46V46.54H79.06v2.91Z"/></svg>