<svg id="Layer_1" data-name="Layer 1" xmlns="http://www.w3.org/2000/svg" viewBox="0 0 50 100"><defs><style>.cls-1{fill:#f8a076;}.cls-2{fill:#04070e;}</style></defs><path class="cls-1" d="M0,0V100A50,50,0,0,0,50,50,50,50,0,0,0,0,0Z"/><path class="cls-2" d="M34.69,68.14a69.44,69.44,0,0,1-9.17,2.93,62.33,62.33,0,0,1,7.13-8.31,46,46,0,0,0,7.13-8.83,22.52,22.52,0,0,0,2.93-11.38q0-11.89-10.44-25.2,1.65,4.13,2.42,6.19a25.62,25.62,0,0,1,2,8.78,4.77,4.77,0,0,1-1.4,3.87Q27.62,8.39.11,6.89v4.58c3,1,4.54,2.23,4.54,3.72,0,.67-1.53,1.38-4.54,2.14v3.83H.19a14,14,0,0,0,6.49-1.91q3.56-1.91,5.34-1.91,3.81,0,6.24,3.95a13.21,13.21,0,0,1,2.16,7.38q0,3.18-1.53,3.18-1.15,0-3.31-3.18-1.53-2.42-2.29-3.56A6.4,6.4,0,0,0,13,26.9q0,5.34,4.9,9.93T28.2,41.67a23.24,23.24,0,0,1-1.78,7.13q-1.79,4.84-4.07,5.73a5.84,5.84,0,0,1-1.53-4.33,15.06,15.06,0,0,1,.82-3.95,15,15,0,0,0,.83-3.82,7.56,7.56,0,0,0-2.86,2.74,9.66,9.66,0,0,0-1.84,3.75,35.45,35.45,0,0,0-.51,9.16q.38,3.31-2.8,7.38T8,69.54A8.69,8.69,0,0,1,4,68.65Q1.72,67.51,1.71,65.6q0-3.05,5.47-6.24,7.64-4.58,8.91-17.95.38,0-6.62,3.88A30.87,30.87,0,0,1,.11,49V92.33Q16,91.3,24,86.6q-1.91,0-9.42-.19t-4.32-.19a2.47,2.47,0,0,1-1.53-.83,2.22,2.22,0,0,1-.89-1.46q0-2,5.34-3.19A31.82,31.82,0,0,1,19.79,80q16.68,0,22.28-13.37a14.36,14.36,0,0,0,1.4-5A26.57,26.57,0,0,1,34.69,68.14Z"/><path class="cls-2" d="M6.36,31.93A4.24,4.24,0,0,0,8.72,28.3q0-4.45-4.2-4.46a4.19,4.19,0,0,0-3.25,1.78A11.37,11.37,0,0,1,.11,26.88v6.25a5.19,5.19,0,0,0,1.61.27A8.77,8.77,0,0,0,6.36,31.93Z"/></svg>