<svg id="Layer_1" data-name="Layer 1" xmlns="http://www.w3.org/2000/svg" viewBox="0 0 50 100"><defs><style>.cls-1{fill:#f8f6da;}.cls-2{fill:#04070e;}</style></defs><path class="cls-1" d="M0,0V100A50,50,0,0,0,50,50,50,50,0,0,0,0,0Z"/><path class="cls-2" d="M18,49.75a17,17,0,0,0-5.36-12.49A17.42,17.42,0,0,0,.21,32V67.53a17.65,17.65,0,0,0,12.62-5A17,17,0,0,0,18,49.75Z"/><path class="cls-2" d="M40.46,46.34Q36.17,40,32.76,40a4.21,4.21,0,0,0-4,2.65q-1.26,2.65-2.78,2.65a4.2,4.2,0,0,1-3.41-1.52,19.89,19.89,0,0,1-2-3.28l4.29-3q2.27-1.51,2.27-3.28a12.68,12.68,0,0,0-.63-3.16,12.6,12.6,0,0,1-.63-3q0-1.89,5-3.41l8.33-2.27Q26.45,20.1,22.41,20.1q-6.43,0-6.94,1.77a7.56,7.56,0,0,0,.19,2.27q.31,2,.31,2.39,0,3.79-3.66,3.79-1.77,0-5.17-2.4,1.51-5,.25-7.95a12.47,12.47,0,0,0-3-3.41q-2.15-2-2.14-3.79,0-3.41,5.43-10.72A52.86,52.86,0,0,0,.21,7V29.82A19.15,19.15,0,0,1,14,35.74a19.15,19.15,0,0,1,5.93,14,18.61,18.61,0,0,1-5.62,14.19A19.6,19.6,0,0,1,.21,69.54V92.18c6.2-4.47,9.34-7.82,9.34-10,0-.42-.78-1.14-2.33-2.14a4.61,4.61,0,0,1-2.34-4q0-5,5.8-5.93,2.9,6.69,6.56,6.69A6.29,6.29,0,0,0,19.57,76a6.57,6.57,0,0,1,2.08-.76q3.66,0,6.94,12.87,2.53-11.23,2.52-16.65,0-5.68-1.55-5.68a11.28,11.28,0,0,0-2.06.38,11,11,0,0,1-2.45.38q-1.42,0-3.48-1.89t-2.06-3.28q0-1,2.4-4.67a31.83,31.83,0,0,0,5.68,1,4.41,4.41,0,0,0,4.54-3.09q1.14-3.09,3.15-3.09,2.77,0,12.62,5.55Q42.85,49.87,40.46,46.34Z"/></svg>