<svg id="Layer_1" data-name="Layer 1" xmlns="http://www.w3.org/2000/svg" viewBox="0 0 100 100"><defs><style>.cls-1{fill:#d0cac3;}.cls-2{fill:#04070e;}</style></defs><circle class="cls-1" cx="50" cy="50" r="50"/><path class="cls-2" d="M49.94,45.26Q60.72,30.19,74,30.19q8.83,0,14.09,5.39T93.32,49.8q0,8.84-5.26,14.42c-3.5,3.72-8.16,5.59-14,5.59q-13,0-24.16-15.07Q38.5,69.81,26,69.81q-8.83,0-14.09-5.52T6.68,49.94q0-8.84,5.26-14.29T26,30.19Q38.77,30.19,49.94,45.26Zm-3.76,4.81Q36,36.17,25.77,36.17A12.79,12.79,0,0,0,16,40a13.82,13.82,0,0,0-3.63,9.94A14.29,14.29,0,0,0,16,60a12.56,12.56,0,0,0,9.74,4Q35.52,64,46.17,50.07Zm7.4,0Q64.1,64,74.23,64a12.42,12.42,0,0,0,9.54-3.83,14,14,0,0,0,3.57-9.94q0-6.36-3.57-10.2T74,36.17a18.26,18.26,0,0,0-11.69,4.42A62.82,62.82,0,0,0,53.57,50.07Z"/></svg>