<svg id="Layer_1" data-name="Layer 1" xmlns="http://www.w3.org/2000/svg" viewBox="0 0 55.31 100"><defs><style>.cls-1{fill:#0b0e12;}</style></defs><path class="cls-1" d="M55.3,50.24a23.73,23.73,0,0,0-5-14.93c-1.61-1.77-2.93-3.79-4.63-5.46-3.75-3.73-9.37-4-13.9-6.32-.26-2.36-1.12-4.71-.6-7.09a3.26,3.26,0,0,0,0-2.35C30,11.36,31,8.39,30.8,5.54c-.16-1.49-.06-3.31-1.47-4.23-.33,3.1-1.47,6-2.39,8.92-.43,2.29-.43,4.68-1.41,6.84.63,2.19-.61,4-2,5.65-3,1.52-6.5,1.88-9.08,4.11A48.2,48.2,0,0,1,8.6,31C7.05,33,5.34,34.83,4.65,37.27,1.89,40.61,1.57,45.08,0,49c0,5.8,1.15,12,4.85,16.69C7.5,67.87,9.35,70.81,12,73c2.54,1.52,5.25,2.76,7.88,4.13,1.71.4,3.47.59,5.18,1.06,1.38,7.11,2.32,14.39,5.09,21.13.92-2.77.81-5.74,1.6-8.53,1.12-4.13-1.18-8.44.12-12.5,1.94-1.73,5.17-.61,7.32-2.09,4.09-2.52,8.42-5,11.39-8.84C51.67,65.13,54,63.48,54,60.81,54,57.22,56.1,53.87,55.3,50.24ZM24.93,72.17a24.72,24.72,0,0,1-8.21-3.87C14,66.52,13,63.19,10.4,61.37c-2.47-3-1.94-7-3-10.48.41-2.44.88-4.86,1.14-7.33,1.21-2,3.07-3.51,3.58-5.87,1.77-2.53,4.46-4.28,6.62-6.48,1.57-1.81,4.07-1,6.14-1.12a17.38,17.38,0,0,0,.13,6c.24,1.21.79,2.41.6,3.68-.41,2.7.6,5.41-.12,8.08-1.44,5.58.13,11.21.27,16.83A51.46,51.46,0,0,1,24.93,72.17ZM47.41,61.6a46.15,46.15,0,0,0-5.35,4.79c-3,2.06-5.92,4.24-9.47,5.27.32-2.53.63-5.13-.17-7.61-2-5.59.45-11.45.86-17.1-.36-3.36,0-7-1.56-10-.2-2.33.8-4.57,1.49-6.76A24,24,0,0,1,39.7,34c2.35,1.76,6,2.91,6.49,6.2.27,2.16,2.63,3.47,2.56,5.68C48.6,51.09,49.32,56.59,47.41,61.6Z"/></svg>