<svg id="Layer_1" data-name="Layer 1" xmlns="http://www.w3.org/2000/svg" viewBox="0 0 100 100"><defs><style>.cls-1{fill:#f8a076;}.cls-2{fill:#04070e;}</style></defs><circle class="cls-1" cx="50" cy="50" r="50"/><path class="cls-2" d="M92,66.62Q86.36,80,69.69,80a31.81,31.81,0,0,0-6.62.76q-5.35,1.15-5.35,3.19a2.23,2.23,0,0,0,.89,1.46,2.48,2.48,0,0,0,1.53.83q-3.18,0,4.33.19t9.42.19q-11.07,6.49-37,6-8.53-.13-14.64-7.51a23.48,23.48,0,0,1-6-15.66A21.68,21.68,0,0,1,22.4,53.82,20.41,20.41,0,0,1,37.74,47.4a22.41,22.41,0,0,1,5.41.89,22.44,22.44,0,0,0,4.52.89q4.71,0,11.71-3.88T66,41.41q-1.27,13.37-8.91,17.95-5.47,3.18-5.47,6.24,0,1.91,2.29,3.06a8.7,8.7,0,0,0,3.95.89q3.31,0,6.49-4.07t2.8-7.38a35.44,35.44,0,0,1,.51-9.16,9.69,9.69,0,0,1,1.84-3.75,7.56,7.56,0,0,1,2.87-2.74,15.05,15.05,0,0,1-.83,3.82,15,15,0,0,0-.83,3.95,5.84,5.84,0,0,0,1.53,4.33q2.29-.89,4.07-5.73a23.24,23.24,0,0,0,1.78-7.13q-5.35-.26-10.25-4.84t-4.9-9.93a6.33,6.33,0,0,1,.26-1.78q.76,1.15,2.29,3.56,2.17,3.18,3.31,3.18,1.52,0,1.53-3.18a13.21,13.21,0,0,0-2.16-7.38q-2.42-3.95-6.24-3.95-1.78,0-5.34,1.91a14,14,0,0,1-6.49,1.91q-.89,0-7.89-2.29,12.35-2,12.35-3.69,0-4.33-16.93-5.86L31.5,8.82q.51-.64,7.26-1.4,5.73-.63,8-.64,30.3,0,38.44,29.41a4.77,4.77,0,0,0,1.4-3.87,25.58,25.58,0,0,0-2-8.78q-.77-2.06-2.42-6.19Q92.6,30.65,92.6,42.55a22.5,22.5,0,0,1-2.93,11.38,46,46,0,0,1-7.13,8.83,62.36,62.36,0,0,0-7.13,8.31,69.34,69.34,0,0,0,9.17-2.93,26.58,26.58,0,0,0,8.78-6.49A14.38,14.38,0,0,1,92,66.62Zm-55.5-50q0,2.29-2.54,2.93L30.61,20q-1.78.89-5.22,7-.38-1.91-1.15-5.35a10.41,10.41,0,0,0-3.82,2q-1.15.89-3.69,2.67.77-4.58,5.09-9.29,4.58-5.21,8.91-5.22Q36.46,11.88,36.46,16.59ZM58.61,28.3a4.24,4.24,0,0,1-2.36,3.63,8.76,8.76,0,0,1-4.65,1.46q-3.06,0-5.47-3.44-2.93-4.2-6-5.48a2.09,2.09,0,0,1,1.53-.63q1.15,0,3.88,1.78t3.5,1.78q.64,0,2.1-1.78a4.19,4.19,0,0,1,3.25-1.78Q58.61,23.85,58.61,28.3Z"/></svg>