<svg id="Layer_1" data-name="Layer 1" xmlns="http://www.w3.org/2000/svg" viewBox="0 0 100 100"><defs><style>.cls-1{fill:#9cc497;}.cls-2{fill:#f8a076;}.cls-3{fill:#04070e;}</style></defs><path class="cls-1" d="M85.35,14.64a50,50,0,1,1-70.7,70.72"/><path class="cls-2" d="M14.65,85.35a50,50,0,0,1,70.7-70.72"/><path class="cls-3" d="M51.94,38.08q-2.58,6.15-10.24,6.15a14.62,14.62,0,0,0-3,.35Q36.19,45.1,36.2,46a1,1,0,0,0,.41.67,1.15,1.15,0,0,0,.7.38q-1.46,0,2,.09t4.33.09q-5.09,3-17,2.75a8.65,8.65,0,0,1-6.73-3.45,10.8,10.8,0,0,1-2.75-7.2A10,10,0,0,1,20,32.2a9.38,9.38,0,0,1,7.05-3,10.32,10.32,0,0,1,2.49.41,10.28,10.28,0,0,0,2.08.41A11.76,11.76,0,0,0,37,28.28a24.9,24.9,0,0,0,3-1.79q-.59,6.14-4.1,8.25-2.52,1.46-2.52,2.87A1.58,1.58,0,0,0,34.44,39a4,4,0,0,0,1.82.41,4,4,0,0,0,3-1.87,4.79,4.79,0,0,0,1.29-3.39,16.37,16.37,0,0,1,.24-4.21,4.45,4.45,0,0,1,.85-1.73A3.5,3.5,0,0,1,42.92,27a6.93,6.93,0,0,1-.38,1.75,6.92,6.92,0,0,0-.38,1.82,2.69,2.69,0,0,0,.7,2q1.05-.41,1.87-2.63a10.7,10.7,0,0,0,.82-3.28,7.39,7.39,0,0,1-4.71-2.22,6.2,6.2,0,0,1-2.25-4.56,2.9,2.9,0,0,1,.12-.82l1.05,1.64c.66,1,1.17,1.46,1.52,1.46s.7-.49.7-1.46a6.07,6.07,0,0,0-1-3.39,3.29,3.29,0,0,0-2.87-1.81,6,6,0,0,0-2.46.88,6.44,6.44,0,0,1-3,.88,26.51,26.51,0,0,1-3.63-1.05q5.67-.94,5.68-1.7,0-2-7.78-2.69l-2.81-.24q.23-.29,3.34-.64c1.75-.19,3-.29,3.68-.29q13.93,0,17.67,13.52a2.19,2.19,0,0,0,.65-1.78,11.76,11.76,0,0,0-.94-4q-.35-.95-1.11-2.85,4.8,6.11,4.8,11.58a10.35,10.35,0,0,1-1.35,5.23,21.06,21.06,0,0,1-3.28,4.06,28.72,28.72,0,0,0-3.28,3.82,32.39,32.39,0,0,0,4.21-1.35,12.25,12.25,0,0,0,4-3A6.61,6.61,0,0,1,51.94,38.08Zm-25.51-23a1.32,1.32,0,0,1-1.17,1.35l-1.52.23q-.82.41-2.4,3.22-.18-.88-.53-2.46a4.81,4.81,0,0,0-1.75.94q-.53.41-1.7,1.23a8.57,8.57,0,0,1,2.34-4.27q2.11-2.4,4.1-2.4Q26.42,12.92,26.42,15.08ZM36.6,20.46a2,2,0,0,1-1.08,1.67,4,4,0,0,1-2.13.67,3.11,3.11,0,0,1-2.52-1.58,6.79,6.79,0,0,0-2.75-2.51,1,1,0,0,1,.7-.29,4.15,4.15,0,0,1,1.78.82,4.56,4.56,0,0,0,1.61.82c.2,0,.52-.27,1-.82a1.92,1.92,0,0,1,1.49-.82Q36.6,18.42,36.6,20.46Z"/><path class="cls-3" d="M89.52,67.62a2.87,2.87,0,0,1-.88,2,2.73,2.73,0,0,1-2,.91A2.8,2.8,0,0,1,84,68.87l-2.67-.11a15,15,0,0,0-3.34.74,8.69,8.69,0,0,0-3.06,1.19,6.91,6.91,0,0,0-1,3.18,20.27,20.27,0,0,0-.34,3A4.08,4.08,0,0,0,74,79.1a3.73,3.73,0,0,0,2,1.19c1,.32,1.62.5,1.84.54a7.2,7.2,0,0,0,.74-.06h.68a5.66,5.66,0,0,1,1.53.23q1.13.34,1,.91a9,9,0,0,0-2.78.34l1.59.79c0,.45-.64.68-1.93.68a5.87,5.87,0,0,1-1.39-.22,5.85,5.85,0,0,0-1.16-.23h-.74A13.11,13.11,0,0,1,75,85a4.24,4.24,0,0,1-2.27-1.13,4.61,4.61,0,0,0-1.64-1.08c-.23,0-.55.36-1,1.08a3.84,3.84,0,0,0-.62,1.47,3.13,3.13,0,0,1-1.25-1.47c-.15-.5-.32-1-.51-1.48q-.57.06-2.1,2.38h-.28q-.12-.17-.85-2.38a10.82,10.82,0,0,0-3.29-.56,11.6,11.6,0,0,0-2.27.34L57.36,82a12.92,12.92,0,0,1,2-1.3,6.63,6.63,0,0,1,2.95-1.14,2.55,2.55,0,0,1,.45.06,2.27,2.27,0,0,0,.45.06,3.47,3.47,0,0,0,1.28-.43c.59-.28.93-.54,1-.77a6.09,6.09,0,0,0,.14-1.76,6.29,6.29,0,0,0-1.7-4.82,9.49,9.49,0,0,0-4.88-2q-.91,3.23-5.1,3.23a3.7,3.7,0,0,1-2.72-1.65,4.93,4.93,0,0,1-1.36-3A4.2,4.2,0,0,1,51.63,65a4.37,4.37,0,0,1-1.42-3,3.83,3.83,0,0,1,.88-2.5,3.39,3.39,0,0,1,2.3-1.25,2.38,2.38,0,0,1,1.19-2.5A3.09,3.09,0,0,1,54,53.55a4.26,4.26,0,0,1,4.36-4.37,4.35,4.35,0,0,1,3.35,1.42Q63.32,45,68.76,45a6.69,6.69,0,0,1,5,2.27,7.46,7.46,0,0,1,.79.91q-.68,0,.68-.25a12.12,12.12,0,0,1,2-.26,5.48,5.48,0,0,1,3.92,1.65,7.88,7.88,0,0,1,2,3.74,8.27,8.27,0,0,1,1.25.34,2.21,2.21,0,0,1,1.25,2.16,2.92,2.92,0,0,1-.45,1.08q3.63,2,3.63,5.67A7.76,7.76,0,0,1,88,65.12,2.72,2.72,0,0,1,89.52,67.62Zm-23.37,2.5v-.74A3.1,3.1,0,0,0,64.88,67a4,4,0,0,0-2.58-1.08,6.12,6.12,0,0,0-2.95.74Q62.35,66.49,66.15,70.11Zm-1-7a14.4,14.4,0,0,1-1.47-2q-2.38.62-2.38,1.42a6.83,6.83,0,0,1,2,.26A9.17,9.17,0,0,0,65.13,63.08Zm3.46-1.76v-2.5a16.15,16.15,0,0,0-1.64-.23v.85ZM76,59.74q-.68-.28-2.55-1.13v4.88Q76.08,61.94,76,59.74Zm3.12,6.69L77.83,64.9l-2.3,1.62a10.39,10.39,0,0,0-2,1.84A19.34,19.34,0,0,1,79.08,66.43Z"/></svg>