<svg id="Layer_1" data-name="Layer 1" xmlns="http://www.w3.org/2000/svg" viewBox="0 0 100 100"><defs><style>.cls-1{fill:#f8f6da;}.cls-2{fill:#f8a076;}.cls-3{fill:#04070e;}</style></defs><path class="cls-1" d="M85.35,14.64a50,50,0,1,1-70.7,70.72"/><path class="cls-2" d="M14.65,85.35a50,50,0,0,1,70.7-70.72"/><path class="cls-3" d="M88,73.11q-3.65-3.4-4.85-3.68-.86-.21-1.67,1a2,2,0,0,1-2.27.86,14.08,14.08,0,0,1-2.33-1A6,6,0,0,0,75.37,72a2.25,2.25,0,0,0,.55,1.62,2.54,2.54,0,0,0,1.3,1.17,4.93,4.93,0,0,0,1.09.09,4.93,4.93,0,0,1,.93.05q.67.16.08,2.6a37.24,37.24,0,0,1-2.79,6.89q-.09-5.86-1.66-6.24a2.9,2.9,0,0,0-1,.11,2.78,2.78,0,0,1-1.08.08q-1.57-.38-2.13-3.55-2.58-.22-3.1,2a2,2,0,0,0,.59,2Q69,79.68,69,80q-.35,1.46-5.36,3.47-2.66,1.08-3.69,1.52A14.89,14.89,0,0,0,62,82.77a7.28,7.28,0,0,0,1.53-2.56q.13-.54-.88-1.82A2.76,2.76,0,0,1,61.93,76a5.64,5.64,0,0,1,1.19-2.12,2.22,2.22,0,0,0-1.49-1.21q-2.17-.52-2.5.89l-.35,1.46q-.37,1.8-3.14,1.14a44.14,44.14,0,0,1-6.86-2.67q6-.06,6.41-1.9a7.42,7.42,0,0,1,.1-1.35q.18-1.73,3.11-2.46.11-2.61-2-3.11c-.22-.05-.71.23-1.46.85a2.37,2.37,0,0,1-1.9.75q-1.3-.31-2.68-3.62-.64-1.64-2-4.88l2.18,1.9A6.86,6.86,0,0,0,53,61.06q.76.18,1.81-1A2.24,2.24,0,0,1,57,59.22a22.6,22.6,0,0,1,2,1.17,5.26,5.26,0,0,0,1.59-2.08,2.43,2.43,0,0,0-.43-1.68,2.2,2.2,0,0,0-1.24-1.18,3.54,3.54,0,0,0-.88,0,3.51,3.51,0,0,1-.88,0q-1-.23-.39-2.67.15-.65,3-7.12a9.92,9.92,0,0,0,0,3.2q.27,2.93,1.52,3.23a2.72,2.72,0,0,0,.95-.12,2.58,2.58,0,0,1,1.1-.08,2.44,2.44,0,0,1,1.72,1.9l.46,1.66A2.55,2.55,0,0,0,67.64,55a2.83,2.83,0,0,0,1.23-1.77,2.07,2.07,0,0,0-.57-2.05c-.57-.58-.83-1-.78-1.19q.27-1.14,4.5-3a27.6,27.6,0,0,1,4.35-1.65q-3.08,2.59-3.43,4a2.45,2.45,0,0,0,.53,1.85,5.47,5.47,0,0,1,1,1.77,5.23,5.23,0,0,1-.92,3.39,4.68,4.68,0,0,0,2,1.56,1.45,1.45,0,0,0,2-1.25q0-.16.11-1.06a3.26,3.26,0,0,1,.15-1q.4-.71,3.16,0a54.36,54.36,0,0,1,7,2.7L84,57.44q-2.32.13-2.52.94a5.62,5.62,0,0,0,0,1.36,5.57,5.57,0,0,1-.05,1.42q-.18.76-1.31,1.17l-2.16.86a8.92,8.92,0,0,0,.53,1.62,1.86,1.86,0,0,0,1.31,1q.65.16,1.46-.85a1.86,1.86,0,0,1,2-.72q1.46.35,2.66,3.5Q86.57,69.5,88,73.11Zm-11.27-6a8.95,8.95,0,0,0-6.51-10.61A9,9,0,0,0,59.5,63a8.05,8.05,0,0,0,1.14,6.6,8.78,8.78,0,0,0,5.49,4,8.68,8.68,0,0,0,6.72-.94A8.22,8.22,0,0,0,76.73,67.09Zm-.81-.19a7.52,7.52,0,0,1-3.53,4.94,8.21,8.21,0,0,1-11-2.69A7.74,7.74,0,0,1,64,58.35,7.9,7.9,0,0,1,74.89,61,7.5,7.5,0,0,1,75.91,66.9Z"/><path class="cls-3" d="M51.94,38.08q-2.58,6.15-10.24,6.15a14.62,14.62,0,0,0-3,.35Q36.19,45.1,36.2,46a1,1,0,0,0,.41.67,1.15,1.15,0,0,0,.7.38q-1.46,0,2,.09t4.33.09q-5.09,3-17,2.75a8.65,8.65,0,0,1-6.73-3.45,10.8,10.8,0,0,1-2.75-7.2A10,10,0,0,1,20,32.2a9.38,9.38,0,0,1,7.05-3,10.32,10.32,0,0,1,2.49.41,10.28,10.28,0,0,0,2.08.41A11.76,11.76,0,0,0,37,28.28a24.9,24.9,0,0,0,3-1.79q-.59,6.14-4.1,8.25-2.52,1.46-2.52,2.87A1.58,1.58,0,0,0,34.44,39a4,4,0,0,0,1.82.41,4,4,0,0,0,3-1.87,4.79,4.79,0,0,0,1.29-3.39,16.37,16.37,0,0,1,.24-4.21,4.45,4.45,0,0,1,.85-1.73A3.5,3.5,0,0,1,42.92,27a6.93,6.93,0,0,1-.38,1.75,6.92,6.92,0,0,0-.38,1.82,2.69,2.69,0,0,0,.7,2q1.05-.41,1.87-2.63a10.7,10.7,0,0,0,.82-3.28,7.39,7.39,0,0,1-4.71-2.22,6.2,6.2,0,0,1-2.25-4.56,2.9,2.9,0,0,1,.12-.82l1.05,1.64c.66,1,1.17,1.46,1.52,1.46s.7-.49.7-1.46a6.07,6.07,0,0,0-1-3.39,3.29,3.29,0,0,0-2.87-1.81,6,6,0,0,0-2.46.88,6.44,6.44,0,0,1-3,.88,26.51,26.51,0,0,1-3.63-1.05q5.67-.94,5.68-1.7,0-2-7.78-2.69l-2.81-.24q.23-.29,3.34-.64c1.75-.19,3-.29,3.68-.29q13.93,0,17.67,13.52a2.19,2.19,0,0,0,.65-1.78,11.76,11.76,0,0,0-.94-4q-.35-.95-1.11-2.85,4.8,6.11,4.8,11.58a10.35,10.35,0,0,1-1.35,5.23,21.06,21.06,0,0,1-3.28,4.06,28.72,28.72,0,0,0-3.28,3.82,32.39,32.39,0,0,0,4.21-1.35,12.25,12.25,0,0,0,4-3A6.61,6.61,0,0,1,51.94,38.08Zm-25.51-23a1.32,1.32,0,0,1-1.17,1.35l-1.52.23q-.82.41-2.4,3.22-.18-.88-.53-2.46a4.81,4.81,0,0,0-1.75.94q-.53.41-1.7,1.23a8.57,8.57,0,0,1,2.34-4.27q2.11-2.4,4.1-2.4Q26.42,12.92,26.42,15.08ZM36.6,20.46a2,2,0,0,1-1.08,1.67,4,4,0,0,1-2.13.67,3.11,3.11,0,0,1-2.52-1.58,6.79,6.79,0,0,0-2.75-2.51,1,1,0,0,1,.7-.29,4.15,4.15,0,0,1,1.78.82,4.56,4.56,0,0,0,1.61.82c.2,0,.52-.27,1-.82a1.92,1.92,0,0,1,1.49-.82Q36.6,18.42,36.6,20.46Z"/></svg>