<svg id="Layer_1" data-name="Layer 1" xmlns="http://www.w3.org/2000/svg" viewBox="0 0 100 100"><defs><style>.cls-1{fill:#cfc9c2;}.cls-2{fill:#04070e;}.cls-3{fill:#fff;}</style></defs><circle class="cls-1" cx="50" cy="50.14" r="50"/><path class="cls-2" d="M49.39,94.53a8.31,8.31,0,0,1-11.74,0l-32-32a8.31,8.31,0,0,1,0-11.74l45-45a8.3,8.3,0,0,1,11.74,0l32,32a8.3,8.3,0,0,1,0,11.74Z"/><path class="cls-3" d="M84.27,58h-36l13.18-9.38a26.55,26.55,0,0,0-17-5.83c-3.21,0-5.41.61-6.59,1.84s-1.78,3.45-1.78,6.66q0,13.31,13.69,28.4L39.39,90.21Q21.26,68.15,21.27,50.78q0-10.39,6.27-16.54T44.2,28.09q12.68,0,27.64,9.63l7.73-13.18Z"/></svg>