<svg id="Layer_1" data-name="Layer 1" xmlns="http://www.w3.org/2000/svg" viewBox="0 0 100 100"><defs><style>.cls-1{fill:#bcd9e8;}.cls-2{fill:#04070e;}</style></defs><circle class="cls-1" cx="50" cy="50" r="50"/><path class="cls-2" d="M67.49,83.72A23.83,23.83,0,0,1,49.8,91Q38,91,31.09,83q-6.54-7.69-6.54-19.61,0-12.81,11.15-29.22a110.51,110.51,0,0,1,21.4-23.58A63.25,63.25,0,0,0,55.31,22.2a27.8,27.8,0,0,0,5,15.51q6.15,9,9.36,13.33,5,7.56,5,14.74A24.61,24.61,0,0,1,67.49,83.72Zm-.13-27.36q-1.92-4.29-4.49-5.7a5,5,0,0,1,.38,2.18,28.41,28.41,0,0,1-1.54,7.69l-1.66,5.13q0,4.49,4.48,4.49,4.74,0,4.74-6.28A18.86,18.86,0,0,0,67.36,56.36Z"/></svg>