<svg id="Layer_1" data-name="Layer 1" xmlns="http://www.w3.org/2000/svg" viewBox="0 0 100 100"><defs><style>.cls-1{fill:#f8a076;}.cls-2{fill:#bcd9e8;}.cls-3{fill:#04070e;}</style></defs><path class="cls-1" d="M85.35,14.64a50,50,0,1,1-70.7,70.72"/><path class="cls-2" d="M14.65,85.35a50,50,0,0,1,70.7-70.72"/><path class="cls-3" d="M88.3,74.44q-2.58,6.15-10.24,6.15a14.56,14.56,0,0,0-3,.35q-2.46.53-2.46,1.46a1,1,0,0,0,.41.67,1.15,1.15,0,0,0,.7.38q-1.46,0,2,.08t4.33.09q-5.09,3-17,2.75a8.65,8.65,0,0,1-6.73-3.45,10.8,10.8,0,0,1-2.75-7.2,10,10,0,0,1,2.84-7.17,9.38,9.38,0,0,1,7.05-3,10.3,10.3,0,0,1,2.49.41,10.3,10.3,0,0,0,2.08.41,11.77,11.77,0,0,0,5.38-1.79,24.86,24.86,0,0,0,3-1.78q-.59,6.14-4.1,8.25Q69.75,72.57,69.75,74a1.58,1.58,0,0,0,1.05,1.41,3.56,3.56,0,0,0,4.8-1.46,4.79,4.79,0,0,0,1.29-3.39,16.38,16.38,0,0,1,.23-4.21A4.46,4.46,0,0,1,78,64.58a3.5,3.5,0,0,1,1.32-1.26,6.93,6.93,0,0,1-.38,1.75,6.92,6.92,0,0,0-.38,1.82,2.68,2.68,0,0,0,.7,2q1.05-.41,1.87-2.63A10.7,10.7,0,0,0,81.92,63a7.39,7.39,0,0,1-4.71-2.23A6.2,6.2,0,0,1,75,56.18a2.9,2.9,0,0,1,.12-.82L76.13,57c.66,1,1.17,1.46,1.52,1.46s.7-.49.7-1.46a6.07,6.07,0,0,0-1-3.39,3.29,3.29,0,0,0-2.87-1.81,6,6,0,0,0-2.46.88,6.44,6.44,0,0,1-3,.88,26.47,26.47,0,0,1-3.63-1.05q5.67-.94,5.68-1.7,0-2-7.78-2.69l-2.81-.24q.23-.29,3.34-.64c1.75-.19,3-.29,3.68-.29q13.93,0,17.67,13.52a2.19,2.19,0,0,0,.64-1.78,11.74,11.74,0,0,0-.94-4q-.35-1-1.11-2.85,4.8,6.11,4.8,11.58a10.35,10.35,0,0,1-1.35,5.23A21.15,21.15,0,0,1,84,72.67a28.59,28.59,0,0,0-3.28,3.82,32.17,32.17,0,0,0,4.21-1.35,12.24,12.24,0,0,0,4-3A6.61,6.61,0,0,1,88.3,74.44Zm-25.51-23a1.32,1.32,0,0,1-1.17,1.35L60.09,53q-.82.41-2.4,3.22c-.12-.58-.29-1.4-.53-2.46a4.79,4.79,0,0,0-1.75.93q-.53.41-1.7,1.23a8.57,8.57,0,0,1,2.34-4.27q2.11-2.4,4.1-2.4Q62.79,49.28,62.79,51.44ZM73,56.83a2,2,0,0,1-1.08,1.67,4,4,0,0,1-2.14.67,3.11,3.11,0,0,1-2.52-1.58,6.78,6.78,0,0,0-2.75-2.52,1,1,0,0,1,.7-.29A4.16,4.16,0,0,1,67,55.6a4.58,4.58,0,0,0,1.61.82c.2,0,.52-.27,1-.82A1.92,1.92,0,0,1,71,54.78Q73,54.78,73,56.83Z"/><path class="cls-3" d="M41.12,48.16a13.41,13.41,0,0,1-9.95,4.11,13.14,13.14,0,0,1-10.52-4.54A16.43,16.43,0,0,1,17,36.7q0-7.21,6.27-16.43A62.18,62.18,0,0,1,35.28,7a35.66,35.66,0,0,0-1,6.56,15.62,15.62,0,0,0,2.81,8.72q3.46,5,5.26,7.5a15,15,0,0,1,2.81,8.29A13.85,13.85,0,0,1,41.12,48.16ZM41,32.77a6.54,6.54,0,0,0-2.52-3.21,2.79,2.79,0,0,1,.22,1.23,16,16,0,0,1-.86,4.32L36.93,38a2.23,2.23,0,0,0,2.52,2.52q2.67,0,2.67-3.53A10.6,10.6,0,0,0,41,32.77Z"/></svg>