<svg id="Layer_1" data-name="Layer 1" xmlns="http://www.w3.org/2000/svg" viewBox="0 0 100 100"><defs><style>.cls-1{fill:#f8f6da;}.cls-2{fill:#04070e;}</style></defs><circle class="cls-1" cx="50" cy="50" r="50"/><path class="cls-2" d="M97.69,57.06q-9.84-5.55-12.62-5.55-2,0-3.15,3.09a4.41,4.41,0,0,1-4.54,3.09,32,32,0,0,1-5.68-1q-2.4,3.66-2.4,4.67c0,.93.69,2,2.06,3.28s2.54,1.89,3.48,1.89a10.89,10.89,0,0,0,2.45-.38,11.22,11.22,0,0,1,2.06-.38q1.55,0,1.55,5.68,0,5.43-2.52,16.65-3.28-12.87-6.94-12.87a6.52,6.52,0,0,0-2.08.76,6.28,6.28,0,0,1-2.33.75q-3.66,0-6.56-6.69-5.8.88-5.8,5.93A4.61,4.61,0,0,0,57,80c1.55,1,2.33,1.73,2.33,2.14q0,3.41-10,10.47-5.3,3.79-7.32,5.3A33.72,33.72,0,0,0,45.59,92q2-4.16,2-6.44,0-1.26-2.9-3.53t-2.9-4.79A12.84,12.84,0,0,1,43.31,72a5,5,0,0,0-3.91-1.89q-5,0-5,3.28v3.41q.12,4.17-6.31,4.16-4.92,0-16.53-2.27,13.12-3.28,13.12-7.57a16,16,0,0,1-.5-3q-.51-3.91,5.55-7.06-1.14-5.8-6.06-5.8-.76,0-2.78,2.65t-3.78,2.65q-3,0-7.82-6.56Q7,50.63,2.31,44.2l5.8,3A15.46,15.46,0,0,0,14.17,49q1.77,0,3.47-3.09t4.48-3.09a51.28,51.28,0,0,1,5,1.52q2.39-3.66,2.4-5.43a5.5,5.5,0,0,0-1.83-3.47q-1.83-2-3.34-2a8,8,0,0,0-2,.38,8,8,0,0,1-2,.38q-2.27,0-2.27-5.68,0-1.51,2.9-17.29-.13,1.89,1.64,7.06,2.14,6.31,5,6.31a6.09,6.09,0,0,0,2-.76,5.83,5.83,0,0,1,2.4-.75q2.9,0,4.79,3.28l1.89,3.41a5.78,5.78,0,0,0,4.41-1.89,6.43,6.43,0,0,0,1.77-4.54,4.68,4.68,0,0,0-2.33-4.23q-2.34-1.45-2.34-2.21,0-2.65,8.33-9,6.69-5,8.71-5.93Q52,9.38,52,12.78q0,1.77,2.14,3.79a12.47,12.47,0,0,1,3,3.41q1.26,2.91-.25,7.95,3.41,2.4,5.17,2.4,3.65,0,3.66-3.79,0-.38-.31-2.4a7.55,7.55,0,0,1-.19-2.27q.5-1.77,6.94-1.77,4,0,16.78,2.27l-8.33,2.27q-5,1.51-5,3.41a12.6,12.6,0,0,0,.63,3,12.7,12.7,0,0,1,.63,3.16q0,1.76-2.27,3.28l-4.29,3a19.89,19.89,0,0,0,2,3.28,4.2,4.2,0,0,0,3.41,1.51q1.51,0,2.78-2.65a4.21,4.21,0,0,1,4-2.65q3.4,0,7.7,6.31Q92.64,49.87,97.69,57.06Zm-28-7.32a19.16,19.16,0,0,0-5.93-14,19.15,19.15,0,0,0-14-5.93,19.39,19.39,0,0,0-14.13,5.87,19.52,19.52,0,0,0-6.05,14.07,18.23,18.23,0,0,0,6,13.94,19.89,19.89,0,0,0,14.19,5.87,19.66,19.66,0,0,0,14.32-5.62A18.61,18.61,0,0,0,69.68,49.75Zm-1.89,0a17,17,0,0,1-5.17,12.74,17.7,17.7,0,0,1-12.87,5A17.57,17.57,0,0,1,37,62.36a17.52,17.52,0,0,1,.06-25.17,17.89,17.89,0,0,1,25.36.06A17,17,0,0,1,67.79,49.75Z"/></svg>