<svg id="Layer_1" data-name="Layer 1" xmlns="http://www.w3.org/2000/svg" viewBox="0 0 100 100"><defs><style>.cls-1{fill:#c2b7ae;}.cls-2{fill:#f8f6da;}.cls-3{fill:#04070e;}</style></defs><path class="cls-1" d="M85.35,14.64a50,50,0,1,1-70.7,70.72"/><path class="cls-2" d="M14.65,85.35a50,50,0,0,1,70.7-70.72"/><path class="cls-3" d="M89.62,66q0,4.05-2.95,5.53a28.37,28.37,0,0,1-5.4,1.17q-2.94.49-2.95,2.27v5c0,.21.06.84.18,1.91l.19,2a17,17,0,0,1-.43,3l-2.7.55a12,12,0,0,1-.49-2.52,4.18,4.18,0,0,1,.15-.92,4.21,4.21,0,0,0,.15-.92,10.74,10.74,0,0,0-.76-2.39h-1a1.21,1.21,0,0,0-.13.8,5.86,5.86,0,0,1,.19,1.78q-1,.74-2.89,2c-.29-.08-.39-.12-.31-.12V80.66q-.12-.3-.61-.25h-.74l-.74,5.77a17.57,17.57,0,0,1-2.09,0q-.43-2-1.53-6h-.49l-.74,2.33a5.53,5.53,0,0,0,.16,1,5.68,5.68,0,0,1,.15,1,8,8,0,0,1-.12.92l-.18,1.47a.42.42,0,0,1-.31.12A2.76,2.76,0,0,1,60.83,86a4,4,0,0,1-.49-2.58l.49-7.37a1.4,1.4,0,0,1,.12-.49,1.42,1.42,0,0,0,.12-.43,4.94,4.94,0,0,0-1-2q-.18-.06-1.9-.43-1-.24-4.11-.86-4.24-.8-4.24-6.82a18.43,18.43,0,0,1,7.37-14.92q.31,1.66,1,4.42l2.39.55,3.74,1.35a38.18,38.18,0,0,1-4.48-3.38,6.36,6.36,0,0,1-1-4.11c0-.45.78-1,2.33-1.6a13.41,13.41,0,0,1,3.13-1,42.78,42.78,0,0,1,5.1-.43q7.67,0,12.4,3.93a19.1,19.1,0,0,1-5.28,3.81,10.84,10.84,0,0,0,4.3-1.17q2.82-1.22,2.39-1.23.49,0,2,2a28,28,0,0,1,1.78,2.64,23.08,23.08,0,0,1,2.64,7.55q0,1.41.06,2ZM66.1,67.1a7.13,7.13,0,0,0-2.3-5,6.85,6.85,0,0,0-4.94-2.36,5.41,5.41,0,0,0-4.11,2A6.42,6.42,0,0,0,53,66.09a2.6,2.6,0,0,0,2,2.72,15.2,15.2,0,0,0,3.62.43H62Q66.1,69.3,66.1,67.1Zm6.69,7.61v-1.9q-.43-.8-.86-1.66a31.91,31.91,0,0,0-1.35-3.44l-.68,7.18c0,.58-.12.86-.37.86a.5.5,0,0,1-.37-.12q-.43-6.51-.43-5.65V67.83a.36.36,0,0,0-.31-.19q-2.09,2.15-2.09,6.94c0,1.76.16,2.84.49,3.26a5.6,5.6,0,0,0,1.11-.43,4.44,4.44,0,0,1,1.41-.12,7.23,7.23,0,0,1,2.82.74Q72.8,78,72.8,74.71Zm13.88-8.56a6.26,6.26,0,0,0-1.84-4.42,5.68,5.68,0,0,0-4.23-1.95,6.6,6.6,0,0,0-4.82,2.36,7.15,7.15,0,0,0-2.24,4.94,1.87,1.87,0,0,0,2.09,2.15h7.06Q86.67,69.18,86.67,66.15Z"/><path class="cls-3" d="M54.67,38.26q-3.65-3.4-4.85-3.68-.87-.21-1.67,1a2,2,0,0,1-2.27.86,13.87,13.87,0,0,1-2.33-1A6,6,0,0,0,42,37.19a2.25,2.25,0,0,0,.55,1.62A2.55,2.55,0,0,0,43.89,40a4.76,4.76,0,0,0,1.09.09,5,5,0,0,1,.93.05q.67.16.08,2.6a37.21,37.21,0,0,1-2.79,6.89q-.09-5.86-1.66-6.24a2.88,2.88,0,0,0-1,.11,2.8,2.8,0,0,1-1.08.08q-1.57-.37-2.13-3.55-2.58-.22-3.1,2a2,2,0,0,0,.59,2c.56.59.82,1,.78,1.16q-.35,1.46-5.36,3.47-2.67,1.08-3.69,1.52a15,15,0,0,0,2.13-2.18,7.26,7.26,0,0,0,1.53-2.56c.09-.36-.21-1-.88-1.81a2.76,2.76,0,0,1-.75-2.36,5.64,5.64,0,0,1,1.19-2.12,2.21,2.21,0,0,0-1.49-1.21q-2.17-.52-2.5.89l-.35,1.46q-.37,1.8-3.14,1.14a44,44,0,0,1-6.86-2.67q6-.06,6.41-1.9a7.35,7.35,0,0,1,.1-1.35q.18-1.73,3.11-2.46.11-2.6-2-3.11c-.22-.05-.71.23-1.46.85a2.37,2.37,0,0,1-1.9.75q-1.3-.31-2.68-3.62-.64-1.64-2-4.88l2.18,1.9a6.87,6.87,0,0,0,2.42,1.38q.76.18,1.81-1a2.24,2.24,0,0,1,2.24-.87,22.07,22.07,0,0,1,2,1.17,5.25,5.25,0,0,0,1.59-2.08,2.43,2.43,0,0,0-.43-1.68,2.21,2.21,0,0,0-1.24-1.18,3.5,3.5,0,0,0-.88,0,3.45,3.45,0,0,1-.88,0q-1-.23-.39-2.67.15-.65,3-7.12a10,10,0,0,0,0,3.2c.18,2,.69,3,1.52,3.23a2.69,2.69,0,0,0,.95-.12A2.58,2.58,0,0,1,30,17a2.44,2.44,0,0,1,1.72,1.9l.46,1.66a2.56,2.56,0,0,0,2.09-.36,2.83,2.83,0,0,0,1.23-1.77A2.07,2.07,0,0,0,35,16.34c-.57-.58-.83-1-.78-1.19q.27-1.14,4.5-3A27.51,27.51,0,0,1,43,10.51q-3.08,2.59-3.43,4a2.44,2.44,0,0,0,.53,1.85,5.47,5.47,0,0,1,.95,1.77,5.22,5.22,0,0,1-.92,3.39,4.68,4.68,0,0,0,2,1.56,1.45,1.45,0,0,0,2-1.25c0-.11.06-.46.11-1.06a3.31,3.31,0,0,1,.15-1q.4-.71,3.16,0a54.44,54.44,0,0,1,7,2.7l-3.81.12q-2.32.13-2.52.95a5.65,5.65,0,0,0,0,1.36,5.57,5.57,0,0,1-.05,1.42q-.18.76-1.31,1.17l-2.16.86A8.91,8.91,0,0,0,45.14,30a1.86,1.86,0,0,0,1.31,1q.65.16,1.46-.85a1.86,1.86,0,0,1,2-.72q1.46.35,2.66,3.5Q53.24,34.66,54.67,38.26Zm-11.27-6a8.46,8.46,0,0,0-1.11-6.62,8.45,8.45,0,0,0-5.4-4,9,9,0,0,0-10.72,6.48,8.05,8.05,0,0,0,1.14,6.6,8.78,8.78,0,0,0,5.49,4,8.68,8.68,0,0,0,6.72-.94A8.23,8.23,0,0,0,43.39,32.24Zm-.81-.2A7.52,7.52,0,0,1,39,37a8.21,8.21,0,0,1-11-2.69,7.74,7.74,0,0,1,2.61-10.8,7.9,7.9,0,0,1,10.88,2.63A7.5,7.5,0,0,1,42.58,32Z"/></svg>