<svg id="Layer_1" data-name="Layer 1" xmlns="http://www.w3.org/2000/svg" viewBox="0 0 100 100"><defs><style>.cls-1{fill:#f7f4d9;}.Graphic-Style-1{fill:#04070e;}.cls-2{fill:none;stroke:#f7f4d9;stroke-miterlimit:10;stroke-width:2.5px;}</style></defs><circle class="cls-1" cx="50" cy="50.07" r="50"/><path class="Graphic-Style-1" d="M34.56,77.88A3.84,3.84,0,0,1,41.22,80c.35,2.41,1,10.11,1.81,13.35.43,1.71,1.26,3.16,2.34,3.22C47.29,96.71,52,92.84,53,91a58.19,58.19,0,0,0,4.27-10.78c.47-1.53,2.1-1.6,3-.12a111.72,111.72,0,0,0,7.62,10.79c.72.89,1.59.79,1.79-.63a83,83,0,0,1,3.86-16.65c.67-1.81,2.55-2,4-1.11a33.28,33.28,0,0,0,4.55,2.17,5.29,5.29,0,0,0,5.48-1c1.72-1.28,1.85-2.53,1-3.91-1.85-2.82-4.37-5-6.37-7.91-1.11-1.61-1-2.75.41-3.59a76.74,76.74,0,0,0,9.65-7,6.11,6.11,0,0,0,2.07-4.38c.35-3.17.56-4.75-.83-5.15s-2.2.59-8,2.09c-1.37.36-3,.57-3.51-.17s-.19-2.21,1-3.51a60.67,60.67,0,0,0,5.9-7c.87-1.3,1.94-3.41,1.09-4.68s-3.3-.62-4.41-.13A31.16,31.16,0,0,1,79.05,30c-2.42.35-4.23.26-5-.52s-.86-2.34-.15-4.16a17.26,17.26,0,0,1,4.53-6.45c1.4-1.17,1.28-1.85.2-2.75-.86-.73-3.48-1.22-5.47-.61a26.84,26.84,0,0,0-8.33,4.31,6.91,6.91,0,0,1-5,1.39,3.84,3.84,0,0,1-3-3.36c-.8-4.66-1.85-9.36-3-12-.72-1.61-1.27-2.19-2.25-2.18S50,4.46,49.13,6c-1.32,2.53-2.68,7.62-3.7,11.81-.59,2.44-1.68,3.4-3.6,4.56-1.07.65-2.09.22-2.64-1.15s-2.46-5.93-3.09-7.8c-.41-1.22-.91-1.29-1.7-.13a100.39,100.39,0,0,0-6.13,10.48c-.78,1.64-.94,3.16.07,4.19,1.36,1.38,1.88,2.06,1.11,2.86-.54.55-2.91.19-5.52-.41a14.57,14.57,0,0,0-7.34,0c-2.21.7-3.63,1.83-3.84,3.28-.17,1.16,2.11,4.43,3.44,5.56a3.72,3.72,0,0,1,1.55,2.24,7.12,7.12,0,0,1-.83,4.62c-.44.65-1.83.67-4.62.83-6.25.37-9,1.56-9.3,6-.22,3.19,2.1,5.09,5.62,4.25a10.14,10.14,0,0,1,4.73-.15c1.72.36,4.82,1.28,4.84,2.94,0,2.07-3.22,2.55-6.34,3.71-1.25.46-.92,1.67.13,1.85s12.75,3.26,14.95,5.95c1.21,1.49-.17,4.78-1,6.69s-.39,7.36.33,7.54S28.73,84.26,29.9,83C31.39,81.47,33,79.68,34.56,77.88Z"/><circle class="cls-2" cx="50" cy="50.07" r="19.89"/></svg>