<svg id="Layer_1" data-name="Layer 1" xmlns="http://www.w3.org/2000/svg" viewBox="0 0 100 100"><defs><style>.cls-1{fill:#bcd9e8;}.cls-2{fill:#f8f6da;}.cls-3{fill:#04070e;}</style></defs><path class="cls-1" d="M85.35,14.64a50,50,0,1,1-70.7,70.72"/><path class="cls-2" d="M14.65,85.35a50,50,0,0,1,70.7-70.72"/><path class="cls-3" d="M76.72,83.67a13.4,13.4,0,0,1-9.95,4.11,13.15,13.15,0,0,1-10.52-4.54,16.43,16.43,0,0,1-3.68-11q0-7.21,6.27-16.43a62.08,62.08,0,0,1,12-13.26,35.73,35.73,0,0,0-1,6.56,15.61,15.61,0,0,0,2.81,8.72q3.46,5,5.26,7.5a15,15,0,0,1,2.81,8.29A13.84,13.84,0,0,1,76.72,83.67Zm-.07-15.39a6.54,6.54,0,0,0-2.52-3.21,2.79,2.79,0,0,1,.22,1.22,16,16,0,0,1-.86,4.33l-.94,2.88A2.23,2.23,0,0,0,75.06,76q2.66,0,2.67-3.53A10.62,10.62,0,0,0,76.65,68.29Z"/><path class="cls-3" d="M54.67,38.26q-3.65-3.4-4.85-3.68-.87-.21-1.67,1a2,2,0,0,1-2.27.86,14,14,0,0,1-2.33-1A6,6,0,0,0,42,37.19a2.25,2.25,0,0,0,.55,1.62A2.54,2.54,0,0,0,43.89,40a4.88,4.88,0,0,0,1.09.09,4.94,4.94,0,0,1,.93.05q.67.16.08,2.6a37.21,37.21,0,0,1-2.79,6.89q-.09-5.86-1.66-6.24a2.9,2.9,0,0,0-1,.11,2.78,2.78,0,0,1-1.08.09q-1.57-.38-2.13-3.55-2.58-.22-3.1,2a2,2,0,0,0,.59,2q.85.89.78,1.16-.35,1.46-5.36,3.47-2.67,1.08-3.69,1.52a14.92,14.92,0,0,0,2.13-2.18,7.27,7.27,0,0,0,1.53-2.56q.13-.54-.88-1.82a2.76,2.76,0,0,1-.75-2.36,5.65,5.65,0,0,1,1.19-2.12,2.21,2.21,0,0,0-1.49-1.21q-2.17-.52-2.5.89l-.35,1.46q-.37,1.8-3.14,1.14a44.22,44.22,0,0,1-6.86-2.67q6-.06,6.41-1.9a7.35,7.35,0,0,1,.1-1.35q.18-1.73,3.11-2.46.11-2.61-2-3.11c-.22-.05-.71.23-1.46.85a2.36,2.36,0,0,1-1.9.75q-1.3-.31-2.68-3.62-.64-1.64-2-4.88l2.18,1.9a6.87,6.87,0,0,0,2.42,1.38q.76.18,1.81-1a2.23,2.23,0,0,1,2.24-.87,22.07,22.07,0,0,1,2,1.17,5.26,5.26,0,0,0,1.59-2.08,2.43,2.43,0,0,0-.43-1.68,2.21,2.21,0,0,0-1.24-1.18,3.5,3.5,0,0,0-.88,0,3.55,3.55,0,0,1-.88,0q-1-.23-.39-2.67.15-.65,3-7.12a9.94,9.94,0,0,0,0,3.2q.27,2.93,1.52,3.23a2.69,2.69,0,0,0,.95-.12A2.58,2.58,0,0,1,30,17a2.44,2.44,0,0,1,1.72,1.9l.46,1.66a2.55,2.55,0,0,0,2.09-.36,2.83,2.83,0,0,0,1.23-1.77A2.07,2.07,0,0,0,35,16.34c-.57-.58-.83-1-.78-1.19q.27-1.14,4.5-3A27.63,27.63,0,0,1,43,10.51q-3.08,2.59-3.43,4a2.44,2.44,0,0,0,.53,1.85,5.47,5.47,0,0,1,.95,1.77,5.23,5.23,0,0,1-.92,3.39,4.68,4.68,0,0,0,2,1.56,1.45,1.45,0,0,0,2-1.25c0-.11.06-.46.11-1.06a3.3,3.3,0,0,1,.15-1q.4-.71,3.16,0a54.44,54.44,0,0,1,7,2.7l-3.81.12q-2.32.13-2.52.94a5.66,5.66,0,0,0,0,1.36,5.58,5.58,0,0,1-.05,1.42q-.18.76-1.31,1.17l-2.16.86A9,9,0,0,0,45.14,30a1.87,1.87,0,0,0,1.31,1q.65.16,1.46-.85a1.86,1.86,0,0,1,2-.72q1.46.35,2.66,3.5Q53.24,34.66,54.67,38.26Zm-11.27-6a8.46,8.46,0,0,0-1.11-6.62,8.46,8.46,0,0,0-5.4-4,9,9,0,0,0-10.72,6.49,8,8,0,0,0,1.14,6.6,8.77,8.77,0,0,0,5.49,4,8.67,8.67,0,0,0,6.72-.94A8.22,8.22,0,0,0,43.39,32.24ZM42.58,32A7.52,7.52,0,0,1,39,37a8.21,8.21,0,0,1-11-2.69,7.74,7.74,0,0,1,2.61-10.8,7.9,7.9,0,0,1,10.88,2.63A7.5,7.5,0,0,1,42.58,32Z"/></svg>