<svg id="Layer_1" data-name="Layer 1" xmlns="http://www.w3.org/2000/svg" viewBox="0 0 100 100"><defs><style>.cls-1{fill:#d0cac3;}.cls-2{fill:#04070e;}</style></defs><circle class="cls-1" cx="50" cy="50" r="50"/><path class="cls-2" d="M56.64,80V76.7q7.05-.78,7.06-4.08a7.64,7.64,0,0,0-1.88-4.75l-13-16L38.54,64c-2.57,3-3.86,5.43-3.86,7.36q0,4.46,7.07,5.39V80H16.69V76.71a19.51,19.51,0,0,0,8.1-3.42,53,53,0,0,0,6.29-6.44L46.53,48.95,28.66,27.29a31.56,31.56,0,0,0-5.4-5.51,15.35,15.35,0,0,0-7.2-2.36V16H45.59v3.29q-6.68,1.32-6.68,4.07a6.73,6.73,0,0,0,1.79,4.07L52.53,41.75,62,30.06q2.57-3.16,2.57-5.52,0-3.94-6.3-5.13V16H81.82v3.29a23,23,0,0,0-4.23,1.19q-3.86,1.84-11.8,10.92Q64.51,32.85,55,44.68L74,68q6.17,7.62,12.59,8.67V80Z"/></svg>