<svg id="Layer_1" data-name="Layer 1" xmlns="http://www.w3.org/2000/svg" viewBox="0 0 100 100"><defs><style>.cls-1{fill:#cfc9c2;}.cls-2{fill:#04070e;}</style></defs><path class="cls-1" d="M100,50A50,50,0,1,1,50,0,50,50,0,0,1,100,50Z"/><path class="cls-2" d="M54.91,65.7q0,6,2,8.41t6.64,2.43l.75-.09V80H35.46V76.45h.93q4.68.09,6.64-2.34t2-8.32V53.26L26.67,26.43l-2-2.62A11.71,11.71,0,0,0,23.12,22a7.37,7.37,0,0,0-2.57-1.45,21.52,21.52,0,0,0-3.51-.7V16.24H45v3.55A17,17,0,0,0,39.3,21a3,3,0,0,0-1.5,2.95,5,5,0,0,0,.37,1.87,11.9,11.9,0,0,0,1,2L53.41,48.3,63.79,33.06a20,20,0,0,0,2.15-3.55,11,11,0,0,0,.84-2.8V26a5.44,5.44,0,0,0-1.59-4.3q-1.59-1.4-5.52-1.78V16.24H82.77v3.55a12.54,12.54,0,0,0-2.06.51,7.92,7.92,0,0,0-1.78.89,12.15,12.15,0,0,0-3.09,2.66A57.37,57.37,0,0,0,72,29L54.91,53.26Z"/></svg>