<svg id="Layer_1" data-name="Layer 1" xmlns="http://www.w3.org/2000/svg" viewBox="0 0 100 100"><defs><style>.cls-1{fill:#cfc9c2;}.cls-2{fill:#04070e;}</style></defs><path class="cls-1" d="M100,50A50,50,0,1,1,50,0,50,50,0,0,1,100,50Z"/><path class="cls-2" d="M74.36,80H20.6V77.29L63.23,20.07h-19a24.23,24.23,0,0,0-7.2,1,11,11,0,0,0-4.67,3.41,3.65,3.65,0,0,0-.33.37,3.28,3.28,0,0,1-.33.37q-.37.56-.7,1a8.82,8.82,0,0,0-.61.89,2.37,2.37,0,0,1-.28.56l-.37.56a11.65,11.65,0,0,1-.47,1.17q-.28.61-.65,1.45l-3.37-.09V16.24h51v2.52l-43,57.41H51.92A51.83,51.83,0,0,0,58.6,76a16.08,16.08,0,0,0,4.63-1.21l.51-.19.42-.19a20.54,20.54,0,0,0,2.52-1.5,22.52,22.52,0,0,0,2.43-2q.84-.84,1.68-1.82t1.78-2.2L75,63.45h3.55Z"/></svg>